<?xml version="1.0" standalone="no"?>
<!DOCTYPE svg PUBLIC "-//W3C//DTD SVG 20010904//EN"
 "http://www.w3.org/TR/2001/REC-SVG-20010904/DTD/svg10.dtd">
<svg version="1.0" xmlns="http://www.w3.org/2000/svg"
 width="128.000000pt" height="115.000000pt" viewBox="0 0 128.000000 115.000000"
 preserveAspectRatio="xMidYMid meet">

<g transform="translate(0.000000,115.000000) scale(0.100000,-0.100000)"
fill="#000000" stroke="none">
<path d="M0 575 l0 -575 640 0 640 0 0 575 0 575 -640 0 -640 0 0 -575z m940
502 c96 -1 -47 -4 -317 -5 -271 -1 -493 1 -493 6 0 6 361 6 810 -1z m234 -51
c3 -11 6 -215 6 -453 l0 -432 -24 -28 -24 -28 -500 -3 -500 -3 -31 27 c-17 14
-31 30 -31 34 0 5 13 -5 29 -21 l29 -29 490 0 490 0 31 26 31 26 0 439 0 440
-27 25 -28 26 27 -12 c14 -7 29 -22 32 -34z m-53 -15 c18 -22 19 -44 19 -430
0 -352 -2 -410 -16 -429 l-15 -22 -488 0 c-442 0 -490 2 -502 17 -11 13 -15
95 -17 418 -2 255 1 412 8 429 5 14 20 31 32 36 13 5 222 8 491 7 l469 -2 19
-24z m-1053 -428 c-1 -236 -4 -360 -5 -278 -7 382 -7 705 0 705 4 0 6 -192 5
-427z"/>
<path d="M135 997 c-3 -6 -4 -199 -3 -427 l3 -415 479 -3 c345 -1 483 1 492 9
11 9 14 86 14 414 0 222 -3 410 -6 419 -5 14 -58 16 -490 16 -379 0 -486 -3
-489 -13z m963 -415 l2 -412 -477 2 -478 3 -3 390 c-1 215 0 400 3 413 l5 22
473 -2 472 -3 3 -413z"/>
<path d="M246 880 l-36 -40 2 -303 3 -302 66 -3 67 -3 36 44 c33 41 36 49 36
110 0 36 4 68 9 72 18 11 31 -33 31 -103 0 -54 4 -75 19 -93 18 -23 26 -24
164 -27 l144 -3 37 42 c20 23 36 48 36 54 0 7 15 16 33 21 22 7 46 28 80 72
l47 63 0 195 c0 262 17 244 -238 244 l-189 0 -39 -29 c-72 -52 -94 -86 -94
-147 0 -30 -4 -54 -10 -54 -20 0 -30 43 -30 134 l0 96 -69 0 c-68 0 -69 -1
-105 -40z m96 -141 c3 -114 15 -132 78 -127 46 4 60 33 60 125 0 103 -1 103
229 103 249 0 231 19 231 -240 0 -235 1 -233 -92 -240 l-63 -5 -3 -52 -3 -53
-132 0 c-73 0 -139 5 -147 10 -10 6 -17 35 -21 96 -5 75 -9 89 -28 105 -31 26
-57 24 -86 -6 -23 -22 -25 -32 -25 -115 l0 -90 -55 0 -55 0 0 295 0 295 54 0
54 0 4 -101z"/>
<path d="M612 747 c-20 -21 -22 -34 -22 -154 0 -130 0 -132 26 -152 41 -32
123 -29 155 5 21 23 24 36 27 120 7 172 -10 204 -106 204 -48 0 -62 -4 -80
-23z m142 -13 c13 -12 16 -38 16 -120 l0 -104 -33 0 c-52 0 -57 12 -57 132 l0
108 29 0 c16 0 37 -7 45 -16z"/>
</g>
</svg>
