<?xml version="1.0" encoding="utf-8"?>
<!-- Generator: Adobe Illustrator 19.2.0, SVG Export Plug-In . SVG Version: 6.00 Build 0)  -->
<svg version="1.1" id="Layer_1" xmlns="http://www.w3.org/2000/svg" xmlns:xlink="http://www.w3.org/1999/xlink" x="0px" y="0px"
	 viewBox="0 0 516 147" style="enable-background:new 0 0 516 147;" xml:space="preserve">
<style type="text/css">
	.st0{fill:#9778D3;}
	.st1{fill:#5B2B82;}
</style>
<g>
	<g>
		<g>
			<path class="st0" d="M154.6052094,61.3427887L133.155014,31.7008476
				c-3.0420532-4.1414547-4.6455688-7.7682476-5.1539459-9.1185169h-0.1726227v38.7604599h-12.2469788V1.7250413h12.0825119
				l21.113945,30.7374268c3.210434,4.6414909,5.1513824,8.107048,5.4910431,9.5404854h0.1676941V1.7250413h12.1614227v59.6177483
				H154.6052094z"/>
		</g>
		<polygon class="st0" points="265.5635681,12.452177 265.5635681,61.3427887 252.3823395,61.3427887 252.3823395,12.452177 
			234.0538025,12.452177 234.0538025,1.7250413 283.8854675,1.7250413 283.8854675,12.452177 		"/>
		<g>
			<path class="st0" d="M309.7429504,11.9439774h-6.4195251v15.7848148h7.1835327
				c5.0658264,0,10.9754333-1.5215378,10.9754333-8.1029663C321.4823914,12.7868958,314.9798889,11.9439774,309.7429504,11.9439774
				 M338.1965332,61.3652382h-15.7756348l-10.9871826-21.0498238c-1.3536682-2.702404-2.6192322-2.9565048-3.9711914-2.9565048
				h-4.1390991v23.8204308h-13.1713562V1.5530901h19.336792c11.8241272,0,25.681427,2.0297387,25.681427,17.0644989
				c0,8.1868153-5.3233337,13.8448772-13.0948181,15.4485645L338.1965332,61.3652382z"/>
		</g>
		<rect x="346.5643311" y="1.7175578" class="st0" width="13.174592" height="59.6252289"/>
		<g>
			<path class="st0" d="M396.7014465,62.7862587c-18.1640625,0-29.5664062-13.0143776-29.5664062-30.5778923
				c0-16.6443996,9.5470886-32.0885429,29.5664062-32.0885429c7.3479919,0,12.7510986,1.5164362,17.0561523,3.4563723
				l-4.3050537,10.8916035c-3.8832703-2.1052542-8.1868286-3.2014217-11.9937439-3.2014217
				c-12.4121094,0-16.6375732,11.1431532-16.6375732,20.6064224c0,12.4114418,8.1917419,19.7594223,17.567749,19.7594223
				c4.7287598,0,8.9540405-1.4417725,11.908844-3.2097549l3.5478821,10.2287979
				C409.5404663,60.8429222,402.5280457,62.7862587,396.7014465,62.7862587"/>
		</g>
		<rect x="422.4560242" y="1.7175578" class="st0" width="13.174592" height="59.6252289"/>
		<g>
			<path class="st0" d="M470.5950623,11.682394h-0.1711121c-3.8849792,7.7781124-7.0091858,16.3021984-9.3760071,25.3400974
				h18.9165039C477.6008301,28.1539936,474.5596313,19.5361938,470.5950623,11.682394 M484.5336304,61.3427887
				c-0.5979919-4.7244949-1.4383545-9.6217842-2.6192322-14.4442444h-22.8113403
				c-1.096344,4.8224602-2.018158,9.7197495-2.7007141,14.4442444h-13.2560425
				c3.2886658-20.0126724,9.0372009-42.2226105,20.0973816-59.7065277h15.6261292
				c11.1465454,18.242815,16.7239685,39.2746048,20.1886902,59.7065277H484.5336304z"/>
		</g>
		<path class="st0" d="M206.9339905,62.8675575c-18.1664581,0-30.4940338-6.0781593-30.4940338-25.164917V1.7175578h13.1754303
			v37.1644249c0,10.5551834,8.6143951,13.936039,17.9065704,13.936039c2.5272217,0,4.9802856-0.3437309,7.4326782-0.9333992
			V1.7175578h12.8357849v59.1253662C220.9506531,62.1035576,213.9356842,62.8675575,206.9339905,62.8675575"/>
	</g>
	<g>
		<path class="st1" d="M125.3294525,95.0125656c-0.3984985-1.6144028-0.4974823-2.7787704-0.4974823-2.7787704h-0.0712662
			c0,0-0.1171875,1.1427689-0.5507202,2.7787704l-2.0088196,7.46772h5.0491791L125.3294525,95.0125656z M129.2518463,110.4842682
			l-1.3155746-4.9030762h-6.4883881l-1.3810577,4.9030762h-4.539444l7.0233002-22.9525146h4.9355621l7.0042496,22.9525146
			H129.2518463z"/>
		<path class="st1" d="M145.7707214,95.4046021c-0.4086914-0.131134-0.8512421-0.1976318-1.3487244-0.1976318
			c-2.6998596,0-3.7296906,2.4615707-3.7296906,6.1637115c0,3.9166107,1.092926,6.1489105,3.5669098,6.1489105
			c0.6602631,0,1.1667633-0.0699005,1.5115051-0.2758713V95.4046021z M144.1695862,110.8215332
			c-5.1115875,0-8.3072357-3.2123032-8.3072357-9.2149506c0-5.7635117,3.071991-9.3045883,7.4343872-9.3045883
			c1.0016022,0,1.8503113,0.131134,2.4739838,0.2990036v-8.3046799h4.8566437v25.189743
			C149.0884857,110.3464966,147.0837402,110.8215332,144.1695862,110.8215332"/>
		<path class="st1" d="M163.0694275,110.4842682h-4.7345276l-5.4213104-17.9797058h5.1729889l2.414978,10.3427582
			c0.3097076,1.3951645,0.3736572,2.7338715,0.3736572,2.7338715h0.06073c0,0,0.0930328-1.3021393,0.4433899-2.7338715
			l2.4716187-10.3427582h4.5807648L163.0694275,110.4842682z"/>
		<path class="st1" d="M178.7021942,101.0434494c-2.9481812,0.298996-4.853241,1.0381699-4.853241,3.9082718
			c0,2.094368,1.1243896,3.0029373,3.0643311,3.0029373c0.7259064,0,1.3470306-0.1345291,1.7889099-0.3653336V101.0434494z
			 M176.6658173,110.8215332c-4.8930359,0-7.4003601-1.9317703-7.4003601-5.6755829
			c0-4.6372375,4.3634033-6.0108032,9.4367371-6.5125427v-0.8271027c0-1.8684998-1.1851196-2.4017029-2.9764099-2.4017029
			c-1.6285248,0-3.2837372,0.572998-4.3882446,1.094635l-1.0604553-2.9665375
			c1.1842804-0.5298004,3.385788-1.363533,6.3572693-1.363533c3.8193207,0,6.6370392,1.700798,6.6370392,6.5656128v10.7512817
			C181.8678894,110.2883301,179.5758972,110.8215332,176.6658173,110.8215332"/>
		<path class="st1" d="M196.4419098,110.4842682V97.9093781c0-1.2689743-0.529129-2.504776-2.5022278-2.504776
			c-0.9759216,0-1.5074158,0.1677017-2.0737915,0.3638v14.7158661h-4.8855591V93.4978333
			c1.6933289-0.8005676,4.0667877-1.3286667,7.0772095-1.3286667c5.3565216,0,7.2716217,2.4331665,7.2716217,5.7119751v12.6031265
			H196.4419098z"/>
		<path class="st1" d="M211.382782,110.8215332c-4.0052185,0-6.952713-3.3419037-6.952713-9.3777161
			c0-6.0708466,3.1674042-9.2746506,6.924469-9.2746506c2.0695496,0,3.3874969,0.6294632,4.1433411,1.3070679l-0.9982147,2.8568344
			c-0.4527435-0.3554688-1.0390167-0.6942673-2.0190125-0.6942673c-2.1243134,0-3.134079,2.0678406-3.134079,5.7318802
			c0,3.6473694,1.1641998,5.7402115,3.1100922,5.7402115c0.9051666,0,1.5314026-0.2641373,2.0429993-0.7208023l1.0296783,3.1259079
			C214.8093872,110.2517624,213.5138855,110.8215332,211.382782,110.8215332"/>
		<path class="st1" d="M224.3971558,95.2302704c-2.0064392,0-3.2629852,1.8469009-3.1143341,5.5492096l5.8997345-0.9419022
			C227.1825562,96.6404037,226.1777191,95.2302704,224.3971558,95.2302704 M221.6017151,103.3140182
			c0.3488312,2.6309738,1.5996094,3.9380417,4.0776825,3.9380417c1.9707184,0,3.4730377-0.4617691,4.3824463-0.9650345
			l1.1011047,3.2223358c-1.3145447,0.712471-3.1964874,1.3121719-6.0432892,1.3121719
			c-5.1779327,0-8.1502533-3.6358032-8.1502533-9.3777161c0-5.6456451,2.7488403-9.2746506,7.6121216-9.2746506
			c4.8855438,0,7.3646393,3.5361404,7.1477966,9.6102142L221.6017151,103.3140182z"/>
		<path class="st1" d="M244.132431,95.4046021c-0.4036102-0.131134-0.8437805-0.1976318-1.35112-0.1976318
			c-2.6833649,0-3.7256165,2.4615707-3.7256165,6.1637115c0,3.9166107,1.0995789,6.1489105,3.5793457,6.1489105
			c0.6536102,0,1.1568909-0.0699005,1.4973907-0.2758713V95.4046021z M242.532135,110.8215332
			c-5.1041107,0-8.3055267-3.2123032-8.3055267-9.2149506c0-5.7635117,3.077774-9.3045883,7.4384613-9.3045883
			c1.0024567,0,1.8395844,0.131134,2.4673615,0.2990036v-8.3046799h4.859024v25.189743
			C247.4559631,110.3464966,245.4486694,110.8215332,242.532135,110.8215332"/>
		<path class="st1" d="M278.2398071,110.4842682c-0.074646-0.8653717-1.0745544-13.2077637-1.0745544-13.2077637
			c-0.1246643-1.4334335-0.0898132-2.8087006-0.0898132-2.8087006h-0.0697327c0,0-0.247467,1.330368-0.651062,2.8087006
			c0,0-3.2653503,12.0401611-3.6407471,13.2077637h-2.5312805c-0.3554688-0.9749069-3.6341248-13.2077637-3.6341248-13.2077637
			c-0.4119263-1.4783325-0.6677246-2.8087006-0.6677246-2.8087006h-0.0631104c0,0,0.0631104,1.330368-0.0630798,2.8087006
			c0,0-1.0298462,12.2095566-1.0880127,13.2077637h-4.202179l2.2904663-22.9525146h4.947998l3.3534546,12.8456573
			c0.3786011,1.4019699,0.5629578,2.5728073,0.5629578,2.5728073h0.0699158c0,0,0.2141418-1.1708374,0.5911865-2.5728073
			l3.5395508-12.8456573h4.9180603l2.3202209,22.9525146H278.2398071z"/>
		<path class="st1" d="M292.9607849,95.2302704c-2.0014954,0-3.2572021,1.8469009-3.1043091,5.5492096l5.8897095-0.9419022
			C295.7461853,96.6404037,294.7462769,95.2302704,292.9607849,95.2302704 M290.1704407,103.3140182
			c0.3388062,2.6309738,1.5945129,3.9380417,4.0708923,3.9380417c1.9798889,0,3.4862976-0.4617691,4.391449-0.9650345
			l1.094635,3.2223358c-1.3104553,0.712471-3.1990356,1.3121719-6.0475464,1.3121719
			c-5.1738281,0-8.1468201-3.6358032-8.1468201-9.3777161c0-5.6456451,2.7471313-9.2746506,7.6187439-9.2746506
			c4.8814697,0,7.364624,3.5361404,7.1419983,9.6102142L290.1704407,103.3140182z"/>
		<path class="st1" d="M312.7026978,95.4046021c-0.4136353-0.131134-0.8420715-0.1976318-1.3470459-0.1976318
			c-2.6990051,0-3.7320862,2.4615707-3.7320862,6.1637115c0,3.9166107,1.0961914,6.1489105,3.5710144,6.1489105
			c0.6660461,0,1.1626892-0.0699005,1.5081177-0.2758713V95.4046021z M311.103241,110.8215332
			c-5.1156616,0-8.3014526-3.2123032-8.3014526-9.2149506c0-5.7635117,3.067749-9.3045883,7.4294739-9.3045883
			c0.9998779,0,1.838562,0.131134,2.4714355,0.2990036v-8.3046799h4.8598633v25.189743
			C316.0163574,110.3464966,314.0131531,110.8215332,311.103241,110.8215332"/>
		<path class="st1" d="M321.3495789,92.5045624h4.8930359v17.9880371h-4.8930359V92.5045624z M323.7927856,89.7657623
			c-1.438385,0-2.5993347-1.0664062-2.5993347-2.4466095c0-1.3220291,1.1609497-2.4166718,2.5993347-2.4166718
			c1.4483948,0,2.605957,1.0946426,2.605957,2.4166718C326.3987427,88.6993561,325.2411804,89.7657623,323.7927856,89.7657623"/>
		<path class="st1" d="M336.3977661,110.8215332c-4.0162659,0-6.9511719-3.3419037-6.9511719-9.3777161
			c0-6.0708466,3.1541138-9.2746506,6.9212341-9.2746506c2.0644531,0,3.3782959,0.6294632,4.1290588,1.3070679l-0.9932861,2.8568344
			c-0.4468079-0.3554688-1.0379944-0.6942673-2.0162964-0.6942673c-2.1227722,0-3.1242065,2.0678406-3.1242065,5.7318802
			c0,3.6473694,1.1558533,5.7402115,3.1008911,5.7402115c0.9085693,0,1.5297241-0.2641373,2.0396118-0.7208023l1.0249023,3.1259079
			C339.8126526,110.2517624,338.5203552,110.8215332,336.3977661,110.8215332"/>
		<path class="st1" d="M351.8444519,101.0434494c-2.9365845,0.298996-4.853241,1.0381699-4.853241,3.9082718
			c0,2.094368,1.1260986,3.0029373,3.06604,3.0029373c0.7175598,0,1.3453369-0.1345291,1.7872009-0.3653336V101.0434494z
			 M349.8114929,110.8215332c-4.894928,0-7.4061279-1.9317703-7.4061279-5.6755829
			c0-4.6372375,4.3582764-6.0108032,9.4390869-6.5125427v-0.8271027c0-1.8684998-1.1943054-2.4017029-2.973175-2.4017029
			c-1.629364,0-3.2952881,0.572998-4.391449,1.094635l-1.0662537-2.9665375
			c1.1907349-0.5298004,3.3815613-1.363533,6.3579712-1.363533c3.8302002,0,6.6487427,1.700798,6.6487427,6.5656128v10.7512817
			C355.0118713,110.2883301,352.7164612,110.8215332,349.8114929,110.8215332"/>
		<rect x="360.2105408" y="84.2963181" class="st1" width="4.8882785" height="26.1879482"/>
		<path class="st1" d="M389.9846191,110.4842682l-7.1768799-12.8755951
			c-0.6627808-1.2024689-1.1329041-2.4017029-1.1329041-2.4017029h-0.0614014c0,0,0.1229858,1.232399,0.1229858,2.4996719v12.777626
			h-4.2571106V87.5317535h4.4763489l6.6122131,11.7826538c0.6593933,1.1494064,1.0961609,2.1957397,1.0961609,2.1957397h0.0697327
			c0,0-0.1394653-1.1027985-0.1394653-2.3069687V87.5317535h4.3018494v22.9525146H389.9846191z"/>
		<path class="st1" d="M404.8617249,110.8215332c-4.7653198,0-7.0805969-1.9052353-7.0805969-6.2419434V92.5045624h4.8930359
			v12.4471588c0,1.3055344,0.6576843,2.3734741,2.3186951,2.3734741c0.8753967,0,1.5048828-0.1394653,2.0312805-0.4335403
			V92.5045624h4.8831787v16.9167023C410.3377991,110.2517624,408.0323792,110.8215332,404.8617249,110.8215332"/>
		<path class="st1" d="M421.6886292,110.7500992c-3.5361328,0-5.0741882-2.4316406-5.0741882-5.2071762v-9.6632843h-1.8468933
			v-3.3750763h1.8468933v-3.8467026l4.8981628-1.330368v5.1770706h2.5976257v3.3750763h-2.5976257v9.2663116
			c0,1.3620071,0.4617615,2.1061096,1.5645447,2.1061096c0.405304,0,0.6262512-0.06633,1.0330811-0.2059708v3.2056732
			C423.7033997,110.4560318,422.8280029,110.7500992,421.6886292,110.7500992"/>
		<path class="st1" d="M435.1671448,95.9078674c-1.1875-0.5348969-2.4432068-0.5032654-3.257019-0.1096954v14.6944275h-4.889801
			V93.4978333c1.8768005-0.9733734,4.5127258-1.488205,9.0586243-1.2640381L435.1671448,95.9078674z"/>
		<path class="st1" d="M438.3728333,92.5045624h4.8831787v17.9880371h-4.8831787V92.5045624z M440.8010559,89.7657623
			c-1.4383545,0-2.5976257-1.0664062-2.5976257-2.4466095c0-1.3220291,1.1592712-2.4166718,2.5976257-2.4166718
			c1.4550476,0,2.6159973,1.0946426,2.6159973,2.4166718C443.4170532,88.6993561,442.2561035,89.7657623,440.8010559,89.7657623"/>
		<path class="st1" d="M453.1235352,110.7500992c-3.5410461,0-5.0741577-2.4316406-5.0741577-5.2071762v-9.6632843h-1.8569336
			v-3.3750763h1.8569336v-3.8467026l4.89151-1.330368v5.1770706h2.5927124v3.3750763h-2.5927124v9.2663116
			c0,1.3620071,0.4600525,2.1061096,1.5645752,2.1061096c0.4069824,0,0.6195984-0.06633,1.0281372-0.2059708v3.2056732
			C455.125061,110.4560318,454.2562866,110.7500992,453.1235352,110.7500992"/>
		<path class="st1" d="M458.5499573,92.5045624h4.8864136v17.9880371h-4.8864136V92.5045624z M460.9914551,89.7657623
			c-1.4383545,0-2.6010437-1.0664062-2.6010437-2.4466095c0-1.3220291,1.1626892-2.4166718,2.6010437-2.4166718
			c1.438385,0,2.6010437,1.0946426,2.6010437,2.4166718C463.5924988,88.6993561,462.4298401,89.7657623,460.9914551,89.7657623"/>
		<path class="st1" d="M474.094635,95.4046021c-2.1608887,0-2.5993347,2.8036041-2.5993347,6.0092773
			c0,3.2371368,0.4666748,5.8764496,2.5993347,5.8764496c2.1625671,0,2.5993347-2.6393127,2.5993347-5.8764496
			C476.6939697,98.2082062,476.2572021,95.4046021,474.094635,95.4046021 M474.094635,110.8215332
			c-4.89151,0-7.4658508-3.9747772-7.4658508-9.3494873c0-5.366539,2.5743408-9.3028793,7.4277344-9.3028793
			c4.9279175,0,7.4940796,3.9363403,7.4940796,9.3028793C481.5505981,106.846756,478.984436,110.8215332,474.094635,110.8215332"/>
		<path class="st1" d="M494.1156311,110.4842682V97.9093781c0-1.2689743-0.5282593-2.504776-2.5129395-2.504776
			c-0.9633484,0-1.49823,0.1677017-2.0596619,0.3638v14.7158661h-4.8947449V93.4978333
			c1.6858521-0.8005676,4.0759583-1.3286667,7.0855408-1.3286667c5.3532715,0,7.2716064,2.4331665,7.2716064,5.7119751v12.6031265
			H494.1156311z"/>
	</g>
	<g>
		<path class="st1" d="M89.5520401,1.7250413v26.0294342H89.546257c-25.0885544,0-45.5413895,19.8242226-46.5637436,44.6593513
			H16.9414978C17.9745998,33.1982346,50.0830269,1.7250413,89.546257,1.7250413H89.5520401z"/>
	</g>
	<path class="st0" d="M89.5520401,120.9748154V147c-39.4639091,0-71.5774384-31.4747238-72.6105423-70.6896362h26.0410156
		c1.0223541,24.8410797,21.4751892,44.6644516,46.5637436,44.6644516H89.5520401z"/>
	<polygon class="st1" points="115.5814667,72.4146729 91.5003052,72.4146729 91.5003052,48.3585167 87.6054688,48.3585167 
		87.6054688,72.4146729 63.5499878,72.4146729 63.5499878,76.3088379 87.6054688,76.3088379 87.6054688,100.3641434 
		91.5003052,100.3641434 91.5003052,76.3088379 115.5814667,76.3088379 	"/>
</g>
</svg>
