<?xml version="1.0" standalone="no"?>
<!DOCTYPE svg PUBLIC "-//W3C//DTD SVG 20010904//EN"
 "http://www.w3.org/TR/2001/REC-SVG-20010904/DTD/svg10.dtd">
<svg version="1.0" xmlns="http://www.w3.org/2000/svg"
 width="860.000000pt" height="515.000000pt" viewBox="0 0 860.000000 515.000000"
 preserveAspectRatio="xMidYMid meet">

<g transform="translate(0.000000,515.000000) scale(0.100000,-0.100000)"
fill="#000000" stroke="none">
<path d="M2260 4740 c-356 -32 -713 -168 -1000 -381 -100 -74 -269 -235 -350
-334 -232 -283 -389 -658 -429 -1027 -56 -508 104 -1045 429 -1443 80 -98 271
-279 367 -348 217 -155 491 -277 738 -328 45 -10 74 -24 115 -57 63 -51 167
-105 312 -163 124 -49 163 -73 249 -156 73 -70 85 -70 74 4 -5 37 -15 53 -47
82 -22 20 -48 52 -58 72 -25 48 -107 109 -212 158 -70 32 -92 47 -114 80 -17
26 -34 41 -48 41 -40 0 -231 48 -317 80 -113 41 -148 67 -49 35 152 -47 360
-79 360 -55 0 26 -88 98 -163 133 -134 64 -158 95 -198 256 -9 36 -28 61 -100
134 -123 123 -167 217 -140 300 15 45 5 70 -57 141 -59 67 -82 126 -82 209 0
77 20 117 83 166 90 69 119 105 124 153 5 45 -9 98 -27 98 -5 0 -10 -16 -10
-35 0 -39 -36 -85 -65 -85 -43 0 -92 42 -150 130 -38 58 -43 73 -48 140 -3 41
-17 113 -31 160 -14 47 -26 109 -26 139 0 47 4 57 34 87 39 39 57 41 126 14
61 -24 70 -25 70 -5 0 8 -6 15 -14 15 -8 0 -34 11 -57 25 -84 47 -192 26 -231
-46 -26 -49 -22 -91 18 -182 68 -153 85 -218 68 -261 -18 -48 -106 22 -158
125 -48 95 -60 161 -53 299 9 196 77 335 207 425 38 27 40 30 21 37 -25 9 -27
30 -6 48 8 7 15 20 15 29 0 9 4 21 9 27 6 5 21 53 35 108 45 171 126 275 313
399 296 198 598 258 897 181 172 -45 358 -188 473 -367 90 -139 203 -405 203
-478 0 -18 7 -32 20 -39 24 -13 55 -71 71 -135 11 -43 10 -49 -6 -61 -30 -22
-127 -18 -147 5 -16 18 -19 19 -65 5 -29 -9 -68 -14 -99 -11 -36 4 -63 0 -91
-13 -22 -10 -54 -21 -72 -25 -101 -22 -81 -145 68 -412 35 -63 54 -54 45 23
-5 42 -2 55 22 92 16 23 36 42 46 42 24 0 23 13 -2 35 -23 20 -27 55 -7 55 7
0 22 -7 33 -15 26 -20 48 -19 96 6 76 39 93 21 128 -136 37 -170 25 -201 -105
-271 -30 -16 -30 -41 -1 -83 17 -24 26 -51 26 -77 0 -21 7 -48 15 -58 22 -29
18 -71 -11 -113 -47 -69 -20 -154 90 -285 73 -87 93 -143 82 -231 -9 -72 -41
-136 -121 -242 -82 -108 -99 -145 -119 -253 -9 -46 -18 -88 -22 -93 -3 -5 -2
-9 2 -9 8 0 113 63 187 113 32 21 61 37 63 34 8 -8 -136 -134 -211 -187 -39
-26 -107 -67 -150 -90 -44 -23 -86 -47 -92 -52 -15 -12 -18 -108 -4 -108 23 0
165 56 266 106 308 149 581 390 774 682 23 34 43 62 45 62 1 0 26 -35 54 -78
132 -201 323 -391 536 -534 654 -438 1516 -443 2171 -11 373 246 643 598 784
1021 115 344 129 761 37 1099 l-14 52 57 16 c205 59 367 190 460 375 32 62 91
223 91 248 0 3 -20 -28 -44 -70 -124 -218 -261 -350 -431 -414 -125 -47 -202
-57 -442 -59 -123 -1 -225 -4 -228 -7 -7 -7 -157 -785 -215 -1118 -47 -264
-56 -304 -95 -380 -76 -151 -251 -249 -443 -250 -46 0 -53 2 -48 18 3 9 61
314 130 677 175 922 196 1036 196 1046 0 5 -101 9 -235 9 -129 0 -235 -2 -235
-4 0 -2 11 -28 25 -57 50 -111 69 -219 69 -404 0 -324 -75 -577 -250 -843 -79
-120 -264 -302 -371 -365 -163 -97 -342 -139 -507 -118 -348 45 -568 264 -652
651 -29 133 -27 496 4 640 48 218 134 427 244 588 67 98 232 263 326 325 94
63 236 130 337 159 69 20 103 23 240 23 141 0 169 -3 238 -24 42 -13 77 -27
77 -31 0 -4 -26 -10 -57 -14 -32 -4 -97 -22 -145 -40 -281 -107 -528 -350
-678 -670 -114 -243 -180 -548 -167 -775 10 -174 55 -296 138 -378 64 -63 100
-78 194 -78 98 1 166 30 251 107 164 150 283 462 300 783 13 232 -67 426 -201
489 -48 23 -142 17 -210 -13 -25 -11 -45 -16 -45 -11 0 5 27 44 60 88 136 181
298 293 508 350 l97 26 717 6 717 5 -67 95 c-80 113 -294 332 -410 419 -563
423 -1303 515 -1948 241 -353 -149 -667 -411 -879 -732 -21 -32 -39 -58 -40
-58 -2 0 -26 35 -55 78 -82 120 -157 208 -282 327 -286 275 -631 447 -1028
514 -138 23 -359 33 -490 21z m503 -195 c97 -17 222 -53 214 -62 -3 -3 -102 1
-219 8 -309 18 -513 -5 -757 -87 -691 -230 -1177 -863 -1216 -1583 -9 -152
-13 -177 -30 -160 -23 24 -45 120 -45 195 0 161 48 402 114 573 240 622 802
1055 1467 1130 112 13 363 5 472 -14z m2772 -54 c-240 -82 -370 -145 -559
-271 -176 -118 -330 -258 -504 -458 -59 -67 -108 -118 -110 -112 -5 15 61 128
128 219 202 273 491 482 820 595 119 41 266 75 325 74 33 0 14 -8 -100 -47z
m-4014 -103 c-376 -266 -617 -574 -824 -1055 -33 -77 -48 -81 -35 -10 38 213
192 512 366 711 127 146 330 303 482 375 93 44 95 38 11 -21z m2982 -320 c-81
-100 -117 -155 -148 -224 -32 -72 -51 -94 -82 -94 -38 0 -30 45 24 125 48 72
249 283 259 272 3 -3 -20 -39 -53 -79z m-1110 -898 c20 -21 37 -43 37 -49 0
-20 -34 -20 -70 0 -35 20 -43 21 -103 9 -73 -13 -147 -6 -147 15 0 19 14 26
105 52 101 28 130 24 178 -27z m4072 -1177 c-157 -418 -552 -789 -999 -939
-57 -18 -112 -34 -122 -34 -11 0 51 35 136 78 383 191 656 443 935 865 32 48
60 85 63 82 3 -2 -3 -26 -13 -52z"/>
<path d="M1483 3563 c-18 -6 -16 -28 2 -43 8 -7 22 -37 31 -66 26 -91 106
-133 165 -86 32 27 19 52 -26 52 -28 0 -37 5 -44 24 -5 13 -16 26 -24 29 -8 3
-18 22 -21 42 -8 42 -45 64 -83 48z"/>
<path d="M2051 3409 c-42 -17 -81 -50 -81 -70 0 -12 13 -24 37 -34 l37 -16
-37 -30 c-39 -32 -49 -72 -21 -83 8 -3 41 5 73 19 113 47 135 49 289 25 118
-19 141 -25 145 -41 6 -21 5 -22 -78 -21 -68 1 -216 -44 -223 -67 -4 -12 7
-13 64 -8 38 4 97 2 132 -4 47 -8 70 -8 92 1 28 12 33 10 99 -27 19 -11 -101
-83 -139 -83 -11 0 -20 -4 -20 -10 0 -16 24 -12 124 24 138 49 178 74 189 116
11 45 4 89 -24 146 l-23 45 -91 -8 c-108 -10 -151 -9 -317 1 -71 4 -128 12
-128 17 0 5 8 9 19 9 21 0 45 23 34 33 -3 4 -30 7 -60 7 -69 0 -68 15 2 30 36
7 55 16 55 26 0 11 -15 14 -62 13 -35 0 -74 -5 -87 -10z"/>
<path d="M1710 3287 c0 -52 5 -69 25 -97 42 -56 47 -94 29 -194 l-17 -90 23
-18 c29 -23 53 -24 46 0 -3 9 5 41 19 70 17 38 22 59 16 75 -5 13 -4 47 2 80
10 56 10 58 -22 95 -17 20 -39 53 -47 72 -20 43 -43 70 -61 70 -9 0 -13 -17
-13 -63z"/>
<path d="M1495 3024 c-20 -20 -16 -53 8 -68 13 -8 20 -8 26 3 12 19 50 5 63
-24 9 -20 6 -29 -20 -62 -40 -49 -47 -82 -29 -126 26 -60 118 -91 125 -41 2
14 -5 24 -23 32 -31 14 -31 21 0 112 14 40 25 79 25 87 0 7 -19 22 -42 34 -24
12 -56 32 -71 45 -34 28 -40 29 -62 8z"/>
<path d="M2505 2763 c-21 -33 -49 -58 -92 -83 -83 -48 -90 -57 -18 -23 93 43
185 44 295 3 192 -71 224 -74 294 -27 60 42 122 45 210 11 35 -13 13 17 -26
37 -24 12 -55 32 -69 46 l-26 24 -30 -29 c-59 -60 -238 -69 -364 -18 -36 14
-77 26 -91 26 -30 0 -38 15 -31 53 8 43 -18 33 -52 -20z"/>
<path d="M1810 2739 c0 -6 16 -38 35 -70 20 -33 45 -93 56 -141 21 -82 37
-111 71 -129 25 -14 53 3 118 70 30 31 71 68 90 82 31 23 33 28 21 43 -18 22
-35 20 -97 -10 -77 -37 -105 -26 -195 82 -65 77 -99 102 -99 73z"/>
<path d="M2350 2519 c0 -16 62 -79 78 -79 82 -4 138 -12 186 -29 83 -29 268
-30 344 -1 29 11 66 20 83 20 22 0 41 10 65 34 46 46 44 61 -6 36 -49 -25 -61
-25 -112 1 -35 18 -45 19 -62 9 -38 -24 -77 -29 -127 -18 -42 10 -61 9 -120
-7 -97 -25 -190 -17 -269 22 -52 26 -60 27 -60 12z"/>
<path d="M2450 2375 c0 -17 34 -45 54 -45 10 0 27 -11 38 -25 16 -21 23 -23
39 -14 23 12 44 0 54 -32 14 -42 96 -62 145 -34 33 19 90 19 118 -1 28 -19 53
-12 80 26 16 21 31 30 52 30 16 0 36 7 45 16 15 16 15 18 -4 38 -19 18 -24 19
-63 8 -177 -52 -280 -50 -448 8 -72 24 -110 33 -110 25z"/>
<path d="M3275 1868 c-2 -7 -6 -42 -8 -78 -2 -36 -10 -91 -18 -123 -12 -52
-12 -59 4 -74 16 -16 18 -16 37 2 28 29 40 107 30 193 -5 41 -12 77 -15 83 -9
13 -25 11 -30 -3z"/>
<path d="M1993 1823 c3 -10 11 -32 18 -50 11 -28 11 -34 -6 -53 -10 -11 -36
-23 -57 -26 -44 -8 -49 -27 -17 -68 29 -37 80 -35 142 4 47 29 87 81 87 111 0
24 -42 58 -99 79 -63 25 -75 25 -68 3z"/>
<path d="M2790 1273 c0 -5 9 -32 20 -61 22 -58 25 -97 10 -136 -11 -29 -9 -30
43 -15 33 9 37 13 37 42 0 41 -33 114 -67 150 -26 26 -43 34 -43 20z"/>
<path d="M2812 972 c-70 -19 -82 -31 -82 -83 0 -63 44 -74 99 -25 35 31 77
128 54 125 -5 0 -36 -8 -71 -17z"/>
</g>
</svg>
