<?xml version="1.0" encoding="utf-8"?>
<!-- Generator: Adobe Illustrator 19.2.1, SVG Export Plug-In . SVG Version: 6.00 Build 0)  -->
<svg version="1.1" id="layer" xmlns="http://www.w3.org/2000/svg" xmlns:xlink="http://www.w3.org/1999/xlink" x="0px" y="0px"
	 viewBox="0 0 652 652" style="enable-background:new 0 0 652 652;" xml:space="preserve">
<style type="text/css">
	.st0{fill:#004282;}
	.st1{fill:#ED1D24;}
	.st2{fill:#EFD898;}
	.st3{fill:#B1B4B6;}
</style>
<g>
	<g>
		<path class="st0" d="M26.5,394.6c-1.6,0-3-0.6-4.1-1.7c-1.1-1.1-1.7-2.6-1.7-4.1V255.3c0-1.6,0.6-3,1.7-4.1
			c1.1-1.1,2.6-1.7,4.1-1.7h199.8c1.6,0,3,0.6,4.1,1.7c1.1,1.1,1.7,2.6,1.7,4.1v133.4c0,3.2-2.6,5.9-5.9,5.9H26.5z"/>
		<path class="st1" d="M167.4,334.2c0,0,3.6-1,7.6-1.1c3.8-0.2,8.8,0,13.3,0.8c4.6,0.8,7.2,1.6,12.7,1.5c5.5-0.2,7.8-1.1,10.6-1.6
			c2.8-0.5,10.4-0.8,14,0.7v-5.7c-3.6-1.5-11.2-1.1-14-0.6c-2.8,0.5-5,1.5-10.6,1.6c-5.5,0.2-8.1-0.7-12.7-1.5
			c-4.6-0.8-9.6-1-13.3-0.8c-4.1,0.2-7.6,1.1-7.6,1.1V334.2z"/>
	</g>
	<polygon class="st2" points="58.7,305.1 42.4,275.8 28.1,305.4 	"/>
	<polygon class="st2" points="65.9,305.1 78.5,279.1 93,304.9 	"/>
	<polygon class="st2" points="100.7,304.8 111.1,284.9 122.1,304.5 	"/>
	<polygon class="st2" points="127.3,304.8 136.1,286.6 145.2,304.5 	"/>
	<polygon class="st2" points="149.7,304.2 157.6,288.5 164.4,303.9 	"/>
	<polygon class="st2" points="164.8,307.7 164.8,305.8 25.5,307.7 25.5,310.6 	"/>
	<polygon class="st2" points="165.6,336.5 165.6,335.2 25.5,357.6 25.5,359.9 	"/>
	<polygon class="st2" points="165.6,338.8 165.6,337.5 25.5,361.3 25.5,363.5 	"/>
	<g>
		<path class="st0" d="M40.9,297.8c0-1,0.8-1.8,1.8-1.8c1,0,1.8,0.8,1.8,1.8c0,1-0.8,1.8-1.8,1.8C41.7,299.6,40.9,298.8,40.9,297.8"
			/>
		<path class="st0" d="M77.2,298.8c0-1,0.8-1.8,1.8-1.8c1,0,1.8,0.8,1.8,1.8c0,1-0.8,1.8-1.8,1.8C78,300.6,77.2,299.8,77.2,298.8"/>
		<path class="st0" d="M109.9,299.4c0-0.8,0.6-1.4,1.4-1.4c0.8,0,1.4,0.6,1.4,1.4c0,0.8-0.6,1.4-1.4,1.4
			C110.5,300.8,109.9,300.2,109.9,299.4"/>
		<path class="st0" d="M135.1,300.1c0-0.6,0.5-1.1,1.1-1.1c0.6,0,1.1,0.5,1.1,1.1s-0.5,1.1-1.1,1.1
			C135.7,301.2,135.1,300.7,135.1,300.1"/>
		<path class="st0" d="M157.4,299.6c-0.5,0-0.9,0.4-0.9,0.9s0.4,0.9,0.9,0.9c0.5,0,0.9-0.4,0.9-0.9S157.9,299.6,157.4,299.6"/>
	</g>
	<polygon class="st2" points="110.9,342.4 110.9,320.2 105.5,320.6 105.5,343.2 	"/>
	<polygon class="st2" points="136.9,338.6 136.9,318.8 131.6,319.1 131.6,339.4 	"/>
	<polygon class="st2" points="157.6,317.6 157.6,335.1 160.2,334.7 160.2,317.5 	"/>
	<polygon class="st2" points="153.9,317.8 153.9,335.6 156.8,335.2 156.8,317.7 	"/>
	<g>
		<path class="st2" d="M53.5,389.4H47c0,0,16.9-18.4,58.9-31.6c42-13.2,86-15.5,119.7-14v2.1c0,0-51.5-4.1-103.3,10.4
			C73,370.2,53.5,389.4,53.5,389.4"/>
		<path class="st2" d="M108.3,389h-6.8c0,0,11.8-13.8,42-23.3c30.2-9.5,63.8-12.2,82-11.4v1.7c0,0-33.5-1-68.6,8.5
			C121.2,374,108.3,389,108.3,389"/>
		<path class="st1" d="M225.4,352.6v-5.5c0,0-5.4-0.6-7.8-0.2l4.4,5.5L225.4,352.6z"/>
	</g>
	<polygon class="st2" points="219.7,352.4 215.2,346.7 208.5,346.7 213.4,352.6 	"/>
	<polygon class="st1" points="210.5,352.6 205.7,346.9 198.8,346.9 204,352.6 	"/>
	<polygon class="st2" points="202,353.1 196,346.9 188.2,347.4 195.7,353.9 	"/>
	<polygon class="st1" points="191.9,353.7 185.7,347.6 177.3,348.4 184.6,354.6 	"/>
	<polygon class="st2" points="166.9,349.7 174.8,348.9 182.2,355.4 174.7,356.5 	"/>
	<polygon class="st1" points="163.6,350 156.1,350.8 165.1,358 172.2,356.8 	"/>
	<polygon class="st2" points="152.9,351.3 144.6,352.9 154.4,360.4 162,358.9 	"/>
	<polygon class="st1" points="141.5,353.9 133.7,355.4 144.9,362.7 151.6,360.9 	"/>
	<polygon class="st2" points="130.3,356.2 123.3,358.1 136.1,365.6 142.6,363.5 	"/>
	<polygon class="st1" points="120.5,359.1 112.4,361.9 127.5,368.7 133.4,366.4 	"/>
	<g>
		<path class="st2" d="M109.1,363c0,0-5.5,1.3-8.5,2.9l18.5,7c0,0,3.9-2.1,5.7-2.9L109.1,363z"/>
		<path class="st1" d="M96.6,367.6c0,0-4.2,1.3-8,3.3l21,6.8c0,0,4.2-2.6,6-3.3L96.6,367.6z"/>
		<path class="st2" d="M85.7,372.6c0,0-4.4,1.6-6.7,3.3l22.9,7.5l5.5-3.7L85.7,372.6z"/>
		<path class="st1" d="M76.3,377.7c0,0-5,2.8-6.3,3.9l24.9,7.5c0,0,2.6-2.6,3.7-3.7L76.3,377.7z"/>
		<path class="st2" d="M66.7,383.3c0,0-6.2,3.9-7.5,5.5h25.9L66.7,383.3z"/>
	</g>
	<rect x="26.5" y="256.3" class="st2" width="199.1" height="3.9"/>
	<rect x="26.5" y="262.5" class="st2" width="199.1" height="3.9"/>
	<rect x="26.5" y="268.7" class="st2" width="199.1" height="3.9"/>
	<polygon class="st2" points="44.4,274.8 45.7,276.5 80.2,276.5 81.5,278.8 225.6,278.8 225.6,274.8 	"/>
	<polygon class="st2" points="82.5,281 83.8,283 112.7,283 113.4,284 137.3,284 137.9,284.9 225.6,284.9 225.6,281 	"/>
	<polygon class="st2" points="160.2,287.2 161.5,291.1 225.6,291.1 225.6,287.2 	"/>
	<polygon class="st2" points="162.5,293.4 164.1,297.3 225.6,297.3 225.6,293.4 	"/>
	<g>
		<path class="st2" d="M173.8,318.1h-7.1v3.9h2.8C170.7,321.4,172.3,320.2,173.8,318.1"/>
		<path class="st2" d="M180.3,311.9h-13.6v3.9h9.8C177.6,314.8,179.2,313.3,180.3,311.9"/>
		<path class="st2" d="M197.3,305.8c0.4,0.9,2,2.6,3.9,5c2,2.4,7.3,5.5,7.3,5.5c-3.7-2.9-6.1-5.6-5.6-6c1.8-1.4,3.8-3.9,4.5-4.6
			H197.3z"/>
		<path class="st2" d="M185.5,305.8h-18.8v3.9h15.9C183.5,308.6,184.9,306.8,185.5,305.8"/>
		<path class="st2" d="M225.4,309.7h0.1v-3.9h-4.5C221.7,306.6,223.2,308.3,225.4,309.7"/>
		<path class="st2" d="M193.9,299.6c0.4,1,1,2.6,1.6,3.9h14.3c0.7-1.2,1.6-2.8,1.8-3.9H193.9z"/>
		<path class="st2" d="M189.1,299.6h-23.7l1.3,3.9h20.2C187.6,302.6,188.6,301.1,189.1,299.6"/>
		<path class="st2" d="M219.4,303.5h6.2v-3.9h-8.1C217.8,300.4,218.3,301.8,219.4,303.5"/>
		<path class="st2" d="M203.1,335.3c1-0.1,1.8-0.2,2.6-0.3l3-6.3c-0.8,0.2-1.7,0.4-2.8,0.6L203.1,335.3z"/>
		<path class="st2" d="M191.3,334.5c0.8,0.2,1.6,0.3,2.5,0.4l2.5-5.4c-0.9-0.1-1.7-0.2-2.5-0.3L191.3,334.5z"/>
		<path class="st2" d="M183.8,333.3c0.8,0.1,1.6,0.2,2.5,0.3l2.5-5.3c-0.1,0-0.3,0-0.4-0.1c-0.7-0.1-1.3-0.2-2-0.3L183.8,333.3z"/>
		<path class="st2" d="M211.8,333.7c0.7-0.1,1.6-0.2,2.7-0.3l2.8-5.8c-0.9,0-1.8,0-2.6,0.1L211.8,333.7z"/>
		<path class="st2" d="M220,333.4c0.8,0,1.7,0.1,2.5,0.2l2.5-5.2c-0.7-0.2-1.5-0.4-2.3-0.5L220,333.4z"/>
		<path class="st2" d="M178.6,327.3l-2.7,5.7c0.8,0,1.7,0,2.6,0l2.7-5.6C180.2,327.4,179.4,327.4,178.6,327.3"/>
		<path class="st2" d="M207.3,334.7c1.1-0.2,2-0.5,2.9-0.7l2.9-6.2c-0.6,0.1-1.1,0.1-1.5,0.2c-0.4,0.1-0.9,0.2-1.3,0.3L207.3,334.7z
			"/>
		<path class="st2" d="M195.1,335.1c0.7,0.1,1.5,0.2,2.4,0.2l2.7-5.6c-0.9,0-1.7,0-2.5-0.1L195.1,335.1z"/>
		<path class="st2" d="M221.2,327.8c-0.8-0.1-1.7-0.1-2.5-0.1l-2.7,5.7c0.8,0,1.7,0,2.6,0L221.2,327.8z"/>
		<path class="st2" d="M204.3,329.4c-0.8,0.1-1.7,0.2-2.7,0.2l-2.7,5.7c0.7,0,1.4,0,2.1,0c0.2,0,0.4,0,0.6,0L204.3,329.4z"/>
		<path class="st2" d="M223.8,333.9c0.7,0.1,1.3,0.3,1.8,0.5V330L223.8,333.9z"/>
		<path class="st2" d="M192.4,329c-0.8-0.1-1.5-0.3-2.4-0.5l-2.5,5.3c0.3,0,0.5,0.1,0.8,0.1c0.6,0.1,1.1,0.2,1.6,0.3L192.4,329z"/>
		<path class="st2" d="M174.4,333.1l2.7-5.8c-0.7,0-1.4,0-2.1,0c-0.2,0-0.3,0-0.5,0l-2.8,6C172.5,333.3,173.4,333.2,174.4,333.1"/>
		<path class="st2" d="M185,327.7c-0.8-0.1-1.7-0.2-2.5-0.2l-2.6,5.6c0.8,0,1.7,0.1,2.5,0.1L185,327.7z"/>
		<path class="st2" d="M173,327.5c-1,0.1-2,0.2-2.8,0.4l-2.9,6.1v0.2c0,0,1.1-0.3,2.7-0.6L173,327.5z"/>
		<path class="st2" d="M168.7,328.2c-0.8,0.2-1.3,0.3-1.3,0.3v2.4L168.7,328.2z"/>
	</g>
	<polygon class="st2" points="36.9,324.6 34.3,324.6 34.3,323.3 57.1,322.2 57.1,323.5 54.6,323.6 54.6,345.1 61.6,344.2 61.6,318 
		34.6,319.1 30.1,315.5 30.1,348.4 36.9,347.5 	"/>
	<path class="st3" d="M54.6,351.4l6.9-1.1L54.6,351.4z"/>
	<path class="st3" d="M63.5,350l8-1.2L63.5,350z"/>
	<polygon class="st2" points="71.5,322.6 69.1,322.6 69.1,321.4 89.6,320.4 89.6,321.6 87.4,321.7 87.4,340.8 95.5,339.7 
		95.5,316.7 63.5,317.9 63.5,344 71.5,342.9 	"/>
	<polygon class="st2" points="104.2,320.5 102.1,320.5 102.1,319.5 120.6,318.6 120.6,319.6 118.6,319.8 118.6,336.7 123.7,336 
		123.7,315.5 97.3,316.6 97.3,339.5 104.2,338.6 	"/>
	<path class="st3" d="M123.4,340.6l0.3-0.1L123.4,340.6z"/>
	<polygon class="st2" points="130.5,319 128.8,319 128.8,318.1 143.8,317.4 143.8,318.2 142.2,318.3 142.2,333.5 147.4,332.9 
		147.4,314.6 125.3,315.5 125.3,335.8 130.5,335.1 	"/>
	<path class="st3" d="M142.2,337.7l5.2-0.8L142.2,337.7z"/>
	<path class="st3" d="M148.8,336.7l3.8-0.6L148.8,336.7z"/>
	<polygon class="st2" points="148.8,314.5 148.8,332.7 152.6,332.2 152.6,317.7 151.3,317.7 151.3,317.1 162.5,316.5 162.5,317.1 
		161.3,317.2 161.3,331 165.4,330.5 165.4,313.9 	"/>
	<polygon class="st1" points="30.1,348.4 30.1,355.2 36.9,354.1 36.9,347.5 	"/>
	<polygon class="st1" points="54.6,345.1 54.6,351.4 61.6,350.3 61.6,344.2 	"/>
	<polygon class="st1" points="87.4,340.8 87.4,346.2 95.5,345 95.5,339.7 	"/>
	<polygon class="st1" points="63.5,344 63.5,350 71.5,348.7 71.5,342.9 	"/>
	<polygon class="st1" points="104.2,338.6 97.3,339.5 97.3,344.7 104.2,343.6 	"/>
	<polygon class="st1" points="118.6,336.7 118.6,341.4 123.4,340.6 123.7,340.6 123.7,336 	"/>
	<polygon class="st1" points="142.2,333.5 142.2,337.7 147.4,336.9 147.4,332.9 	"/>
	<polygon class="st1" points="130.5,339.5 130.5,335.1 125.3,335.8 125.3,340.3 	"/>
	<polygon class="st1" points="161.3,334.7 165.4,334.1 165.4,330.5 161.3,331 	"/>
	<polygon class="st1" points="148.8,332.7 148.8,336.7 152.6,336.1 152.6,332.2 	"/>
</g>
<g>
	<g>
		<path class="st2" d="M401.1,258.2v30c3.4,0,6.6,0.1,9.8,0c6.9-0.2,11.5-4,12.5-10.8c0.4-2.9,0.4-5.9,0-8.7
			c-0.8-5.7-4.7-10-9.7-10.4C409.6,257.9,405.4,258.2,401.1,258.2 M378.9,295v-4.8c1.6,0,3.1,0,4.6-0.1c2.1-0.2,3.1-2.1,3-4.3
			c0-8.2-0.1-16.3,0-24.5c0-2.1-1-5-2.9-5c-1.5,0-2.9,0-4.6,0c0-2.1,0-2.6,0-4.6c0.5,0,0.9,0,1.4,0c11.8,0,23.6,0,35.4,0
			c10.5-0.1,19.7,7.9,22,17.1c3.1,12.6-4.8,24.2-18.1,25.5c-9,0.9-18.1,0.6-27.2,0.7C388.2,295,383.7,295,378.9,295"/>
		<path class="st2" d="M517.9,266.1c0,7.5-0.1,15.3,0.1,21.9c0,0.7,1.3,1.8,2.2,1.9c1.6,0.3,3.3,0.1,5.2,0.1v4.8h-22.8v-4.7
			c0.7,0,1.1,0,1.7,0c5.6-0.1,5.6-1.5,5.6-7c0-6.9-0.1-13.8,0.1-20.7c0.1-3.1-1-6-4-6c-1.1,0-2.2-0.1-3.5-0.1v-4.8
			c6.8,0,13.5-0.2,20.2,0c0.9,0,1.9,2,2.5,2.9c7.3,8.6,14.5,17.3,22.4,26.7v-6.8c0-4-0.2-8,0.1-11.9c0.2-3.1-0.8-6.2-4-6.2
			c-0.9,0-1.9,0-3.1,0v-4.6c7.3,0,14.7,0,22.3,0v4.6c-1,0-2.1,0-3.2,0.1c-4.4,0-4.4,2.2-4.4,6.8c0,9.4,0,18.8,0,28.2
			c0,1.8-1,3.4-3.1,3.4c-3,0-5.9,0.1-8.9,0.1c-0.8,0-1.7-1-2.4-1.8c-6.9-8-13.7-16-20.6-24C519.8,268.3,519.2,267.6,517.9,266.1"/>
		<path class="st2" d="M299.5,254.2c3.5-2.2,4.1-2.5,6.7-2.3v16.7c-1,0-1.8,0-2.8,0c-2.6,0.2-2.8-0.4-3.8-3.1
			c-2.6-6.4-9.7-8.8-17.9-7.6c-5.9,0.9-9.8,4.9-10.2,11.6c-0.3,4.2,0,8.8,1.3,12.8c2.6,7.7,13.6,8.4,18.7,5.2c2.2-1.4,3-4.7,2.1-7.2
			c-0.2-0.6-1.3-1.9-2.7-2.4c-1.4-0.5-3.1-1.3-4.9-1.3v-4.1h28.9v3.8c-6.7,1.1-6.7,3-6.7,10.3v7.7c-2,1.9-5.8-0.7-8.5-3
			c-9.9,7.2-27.9,6.3-37-1.9c-12.1-10.8-7.7-30.5,8.2-36.6C277.2,250.5,288.9,249.3,299.5,254.2"/>
		<path class="st2" d="M605.1,254.2c3.5-2.2,4.1-2.5,6.7-2.3v16.7c-1,0-1.8,0-2.8,0c-2.6,0.2-2.8-0.4-3.8-3.1
			c-2.6-6.4-9.7-8.8-17.9-7.6c-5.9,0.9-9.8,4.9-10.2,11.6c-0.3,4.2,0,8.8,1.3,12.8c2.6,7.7,13.6,8.4,18.7,5.2c2.2-1.4,3-4.7,2.1-7.2
			c-0.2-0.6-1.3-1.9-2.7-2.4c-1.4-0.5-3.1-1.3-4.9-1.3v-4.1h28.9v3.8c-6.7,1.1-6.7,3-6.7,10.3v7.7c-2,1.9-5.8-0.7-8.5-3
			c-9.9,7.2-27.9,6.3-37-1.9c-12.1-10.8-7.7-30.5,8.2-36.6C582.8,250.5,594.6,249.3,605.1,254.2"/>
		<path class="st2" d="M351.2,256.4v-4.7h22.6v4.7c-1.5,0-2.8,0-4.3,0.1c-2.5,0.1-3.4,2.6-3.3,5c0.1,5.6,0,11.3,0,16.9
			c0,10.4-2.9,15.7-13.1,17.8c-6.7,1.4-13.5,1.4-20.1-0.8c-7.3-2.4-10.8-7.7-10.8-15.5c0-5.7,0-11.5,0-17.2c0-4.4-0.1-6.3-4.4-6.3
			c-1,0-2.1,0-3.3,0v-4.7c9.8,0,19.5,0,29.4,0v4.7c-1.6,0-3.2,0-4.7,0.1c-2.1,0.1-3,2.5-3,4.7c0,6.8-0.1,13.6,0.1,20.4
			c0.2,5.4,2.9,7.9,8.1,7.9c2.4,0,4.8,0.1,7.2-0.3c4.7-0.8,6.7-2.9,6.9-7.7c0.3-6.9,0.1-13.8,0.1-20.7c0-1.8-0.9-4.4-2.8-4.4
			C354.4,256.3,353,256.4,351.2,256.4"/>
		<path class="st2" d="M459.3,274.7H472c-2.2-4.4-4.2-8.5-6.4-13C463.4,266.3,461.4,270.3,459.3,274.7 M439.1,294.8v-4.7
			c5.7,0,6.9-3.8,8.7-7.6c4.5-9.6,8.5-21,13-30.6c0.7-1.5,1.4-2.2,3.2-2.2c10.1-0.1,10.7,1.7,15.1,10.8c3.6,7.5,7.4,14.9,10.8,22.5
			c1.7,3.8,3.7,7,8.5,7.1v4.7h-27.5v-4.6c1.2,0,2.5-0.1,3.7-0.1c3.7,0,3.6-1.9,2.3-5.4c-1-2.7-2.5-3.6-5.5-3.6
			c-3.7,0-7.5-0.1-11.3,0c-3.2,0-4.8,1-5.6,3.9c-0.3,0.9-0.9,3.7-1.4,5.2c2.8,0,5.3,0.1,7.6,0.1v4.6H439.1z"/>
		<path class="st2" d="M539.8,314.9v-5c9,0,17.8,0,26.6,0c0.8,0,1.8,1.4,2.3,2.3c3.7,7.9,7.4,16.8,11.3,25.3
			c3.3-7.2,6.9-13.8,9.5-20.8c1.8-5,4.5-6.8,9.6-6.8c7.2,0,14.1,0,21.4,0v5c-0.3,0-0.5,0-0.7,0c-7.2,0.5-7.2,3-7.2,10.5
			c0,6.5,0,13,0,19.6c0,4.8,0.1,6.3,4.9,6.3c1,0,2,0,3.1,0v5h-30.7v-5c7.4-0.1,7.3-2.1,7.3-9.8v-19.2c-0.2-0.1-1.6,1.7-2.1,2.7
			c-4.4,9.8-8.9,19-13.2,28.9c-0.9,2.1-2,2.5-3.9,2.5c-2.4,0-5.1,0.4-6.4-2.4c-4.2-9.8-8.6-18.9-13-28.6c-0.5-1.1-1-2.1-2.3-3.1V333
			c0,4.2,0.2,8.3-0.1,12.5c-0.2,3.4,1.5,5.7,4.3,5.7c0.8,0,1.7,0,2.7,0v5h-23.3v-5c0.7-0.1,0.9,0,1.2,0c7-0.2,6.7-1.5,6.7-8.7
			c0-6.7,0-13.5,0-20.2c0-4.6-0.1-7.4-4.7-7.4C542.2,314.9,541.1,314.9,539.8,314.9"/>
		<path class="st2" d="M419.6,329.7c3.2,0,10.4,0,11.4-0.1c3.8-0.2,5.7-2.4,5.7-6.2c0.1-3.1-1.8-5.5-5.3-5.8
			c-3.9-0.3-7.8-0.1-11.8-0.1V329.7z M454.3,342h4.9c0.1,3.3,0.1,6.2,0,9.3c-0.1,2.9-2.7,5-5.8,5.3c-4.1,0.4-8.3,0.4-12.4-0.1
			c-3.9-0.5-6.1-2.9-6.7-6.9c-0.4-2.5-0.8-5.2-1.2-7.6c-0.5-3.5-2.2-5.1-5.3-5.3c-2.6-0.2-5.1,0-8.3,0c0,3.9,0,7.8,0.1,11.4
			c0,0.9,0.9,3,2.3,3.1c1.7,0.1,3.5,0.1,5.5,0.1v5.1h-31.3v-5.1c0.8-0.1,1.7,0,2.6,0c5.4-0.1,5.4-1.4,5.4-6.6
			c0-7.6-0.2-15.3,0.1-22.9c0.1-3.5-1.4-6.8-4.1-6.8c-1.1,0-2.6,0-4,0v-5c0.6,0,1.1,0,1.6,0c13.3,0,26.5-0.1,39.7,0
			c3.2,0,6.7,0.7,9.4,2.1c4,2,6,6.1,5.9,10.6c-0.1,4.5-2.4,7.4-6.4,8.9c-2.3,0.9-4.8,1.3-7.4,2c0.7,0.3,1.3,0.5,2,0.7
			c5.5,1.7,7.1,3.8,7.6,9.6c0.1,1.3,0,2.7,0.1,4c0.1,1,0.8,1.8,2.9,1.9c2.1-0.1,2.8-1.3,2.8-2.4C454.3,345.7,454.3,344,454.3,342"/>
		<path class="st2" d="M345.4,334.7h13.7c-2.3-4.8-4.5-9.1-6.8-13.9C349.9,325.6,347.7,330,345.4,334.7 M323.7,356.3v-5
			c6.2,0,7.5-4.1,9.4-8.1c4.8-10.3,9.9-21.9,14.7-32.3c0.8-1.6,1.5-2.3,3.4-2.3c10.8-0.1,10.8,1.2,15.5,10.9
			c3.9,8.1,8,16.1,11.6,24.2c1.8,4.1,4,7.5,9.2,7.6v5.1h-29.6v-5c1.3,0,2.7-0.1,3.9-0.1c4,0,3.9-2,2.5-5.8c-1.1-2.9-2.7-3.9-5.9-3.9
			c-4,0-8-0.1-12.1,0c-3.5,0-5.1,1.1-6,4.1c-0.3,0.9-1,3.9-1.5,5.5c3,0,5.7,0.1,8.2,0.1v5H323.7z"/>
		<path class="st2" d="M488.3,334.7h13.7c-2.3-4.8-4.5-9.1-6.8-13.9C492.7,325.6,490.6,330,488.3,334.7 M466.6,356.3v-5
			c6.2,0,7.5-4.1,9.4-8.1c4.8-10.3,9.9-21.9,14.7-32.2c0.8-1.6,1.5-2.3,3.4-2.3c10.8-0.1,10.8,1.2,15.5,10.9
			c3.9,8.1,8,16.1,11.6,24.2c1.8,4.1,3.9,7.5,9.2,7.6v5.1h-29.6v-5c1.3,0,2.7-0.1,3.9-0.1c4,0,3.9-2,2.5-5.8
			c-1.1-2.9-2.7-3.9-5.9-3.9c-4,0-8-0.1-12.1,0c-3.5,0-5.1,1.1-6,4.1c-0.3,0.9-1,3.9-1.5,5.5c3,0,5.7,0.1,8.2,0.1v5H466.6z"/>
		<path class="st2" d="M302.8,312.7c3.8-2.4,4.4-2.7,7.2-2.5v18c-1.1,0-1.9,0-3,0c-2.8,0.2-3-0.5-4.1-3.3
			c-2.8-6.8-10.4-9.5-19.3-8.2c-6.3,0.9-10.6,5.3-11,12.5c-0.3,4.6,0,9.5,1.4,13.8c2.8,8.3,14.7,9,20.1,5.6c2.4-1.5,3.2-5.1,2.3-7.7
			c-0.2-0.7-1.4-2-2.9-2.6c-1.6-0.6-3.3-1.4-5.3-1.4v-4.4c10.3,0,20.6,0,31.1,0v4.1c-7.3,1.2-7.3,3.2-7.3,11v8.3
			c-2.2,2-6.2-0.8-9.2-3.2c-10.7,7.7-30,6.8-39.8-2c-13-11.6-8.2-32.8,8.8-39.3C278.8,308.8,291.4,307.5,302.8,312.7"/>
		<path class="st2" d="M355.7,380.3v11c1.2,0,2.4,0,3.6,0c2.5-0.1,4.2-1.5,4.6-3.9c0.2-1,0.1-2.2,0-3.2c-0.3-2.1-1.7-3.7-3.6-3.8
			C358.8,380.2,357.3,380.3,355.7,380.3 M347.6,393.8V392c0.6,0,1.2,0,1.7,0c0.8-0.1,1.1-0.8,1.1-1.6c0-3,0-6,0-9
			c0-0.8-0.4-1.8-1-1.8c-0.5,0-1.1,0-1.7,0c0-0.8,0-0.9,0-1.7c0.2,0,0.3,0,0.5,0c4.3,0,8.7,0,13,0c3.9,0,7.2,2.9,8.1,6.3
			c1.1,4.6-1.8,8.9-6.6,9.4c-3.3,0.3-6.7,0.2-10,0.3C351,393.8,349.4,393.8,347.6,393.8"/>
		<path class="st2" d="M398.6,383.2c0,2.7,0,5.6,0,8c0,0.3,0.5,0.6,0.8,0.7c0.6,0.1,1.2,0,1.9,0v1.7H393V392c0.2,0,0.4,0,0.6,0
			c2.1,0,2.1-0.5,2.1-2.6c0-2.5-0.1-5.1,0-7.6c0-1.1-0.3-2.2-1.5-2.2c-0.4,0-0.8,0-1.3,0v-1.8c2.5,0,5-0.1,7.4,0
			c0.3,0,0.7,0.7,0.9,1.1c2.7,3.2,5.3,6.3,8.2,9.8v-2.5c0-1.5-0.1-2.9,0-4.4c0.1-1.1-0.3-2.3-1.5-2.3c-0.3,0-0.7,0-1.1,0v-1.7
			c2.7,0,5.4,0,8.2,0v1.7c-0.4,0-0.8,0-1.2,0c-1.6,0-1.6,0.8-1.6,2.5c0,3.5,0,6.9,0,10.3c0,0.7-0.4,1.2-1.1,1.2c-1.1,0-2.2,0-3.3,0
			c-0.3,0-0.6-0.4-0.9-0.7c-2.5-2.9-5-5.9-7.6-8.8C399.3,384,399,383.7,398.6,383.2"/>
		<path class="st2" d="M318.5,378.8c1.3-0.8,1.5-0.9,2.5-0.8v6.1c-0.4,0-0.7,0-1,0c-1,0.1-1-0.2-1.4-1.1c-0.9-2.3-3.6-3.2-6.6-2.8
			c-2.1,0.3-3.6,1.8-3.8,4.3c-0.1,1.6,0,3.2,0.5,4.7c1,2.8,5,3.1,6.9,1.9c0.8-0.5,1.1-1.7,0.8-2.6c-0.1-0.2-0.5-0.7-1-0.9
			c-0.5-0.2-1.1-0.5-1.8-0.5v-1.5h10.6v1.4c-2.5,0.4-2.5,1.1-2.5,3.8v2.8c-0.7,0.7-2.1-0.3-3.1-1.1c-3.6,2.6-10.2,2.3-13.6-0.7
			c-4.4-4-2.8-11.2,3-13.4C310.3,377.5,314.6,377,318.5,378.8"/>
		<path class="st2" d="M430.6,378.8c1.3-0.8,1.5-0.9,2.5-0.8v6.1c-0.4,0-0.7,0-1,0c-1,0.1-1-0.2-1.4-1.1c-0.9-2.3-3.6-3.2-6.6-2.8
			c-2.1,0.3-3.6,1.8-3.8,4.3c-0.1,1.6,0,3.2,0.5,4.7c1,2.8,5,3.1,6.9,1.9c0.8-0.5,1.1-1.7,0.8-2.6c-0.1-0.2-0.5-0.7-1-0.9
			c-0.5-0.2-1.1-0.5-1.8-0.5v-1.5h10.6v1.4c-2.5,0.4-2.5,1.1-2.5,3.8v2.8c-0.7,0.7-2.1-0.3-3.1-1.1c-3.6,2.6-10.2,2.3-13.6-0.7
			c-4.4-4-2.8-11.2,3-13.4C422.4,377.5,426.7,377,430.6,378.8"/>
		<path class="st2" d="M337.4,379.6v-1.7h8.3v1.7c-0.5,0-1,0-1.6,0c-0.9,0-1.2,1-1.2,1.8c0,2.1,0,4.1,0,6.2c0,3.8-1.1,5.7-4.8,6.5
			c-2.5,0.5-4.9,0.5-7.4-0.3c-2.7-0.9-4-2.8-4-5.7c0-2.1,0-4.2,0-6.3c0-1.6,0-2.3-1.6-2.3c-0.4,0-0.8,0-1.2,0v-1.7
			c3.6,0,7.2,0,10.8,0v1.7c-0.6,0-1.2,0-1.7,0c-0.8,0-1.1,0.9-1.1,1.7c0,2.5,0,5,0,7.5c0.1,2,1.1,2.9,3,2.9c0.9,0,1.8,0,2.6-0.1
			c1.7-0.3,2.4-1.1,2.5-2.8c0.1-2.5,0-5.1,0-7.6c0-0.7-0.3-1.6-1-1.6C338.6,379.6,338.1,379.6,337.4,379.6"/>
		<path class="st2" d="M377.1,386.3h4.7c-0.8-1.6-1.5-3.1-2.3-4.8C378.6,383.2,377.9,384.7,377.1,386.3 M369.7,393.7V392
			c2.1,0,2.5-1.4,3.2-2.8c1.7-3.5,3.1-7.7,4.8-11.2c0.3-0.5,0.5-0.8,1.2-0.8c3.7,0,3.9,0.6,5.5,4c1.3,2.8,2.7,5.5,4,8.3
			c0.6,1.4,1.3,2.6,3.1,2.6v1.7h-10.1V392c0.4,0,0.9,0,1.3,0c1.4,0,1.3-0.7,0.8-2c-0.4-1-0.9-1.3-2-1.3c-1.4,0-2.7,0-4.1,0
			c-1.2,0-1.8,0.4-2.1,1.4c-0.1,0.3-0.3,1.3-0.5,1.9c1,0,1.9,0,2.8,0v1.7H369.7z"/>
		<path class="st2" d="M536.4,379.4v-1.7c3.1,0,6.1,0,9.2,0c0.3,0,0.6,0.5,0.8,0.8c1.3,2.7,2.5,5.8,3.9,8.7c1.2-2.5,2.4-4.8,3.3-7.2
			c0.6-1.7,1.6-2.4,3.3-2.4c2.5,0,4.9,0,7.4,0v1.7c-0.1,0-0.2,0-0.2,0c-2.5,0.2-2.5,1-2.5,3.6v6.7c0,1.7,0,2.2,1.7,2.2
			c0.3,0,0.7,0,1.1,0v1.7h-10.6v-1.7c2.5,0,2.5-0.7,2.5-3.4v-6.6c-0.1,0-0.6,0.6-0.7,0.9c-1.5,3.4-3.1,6.6-4.5,10
			c-0.3,0.7-0.7,0.9-1.4,0.9c-0.8,0-1.8,0.2-2.2-0.8c-1.4-3.4-3-6.5-4.5-9.9c-0.2-0.4-0.4-0.7-0.8-1.1v3.7c0,1.4,0.1,2.9,0,4.3
			c-0.1,1.2,0.5,2,1.5,2c0.3,0,0.6,0,0.9,0v1.7h-8v-1.7c0.2,0,0.3,0,0.4,0c2.4-0.1,2.3-0.5,2.3-3c0-2.3,0-4.6,0-7
			c0-1.6,0-2.5-1.6-2.6C537.2,379.4,536.8,379.4,536.4,379.4"/>
		<path class="st2" d="M497,384.5c1.1,0,3.6,0,3.9,0c1.3-0.1,1.9-0.8,2-2.1c0-1.1-0.6-1.9-1.8-2c-1.3-0.1-2.7,0-4.1,0V384.5z
			 M509,388.7h1.7c0,1.1,0,2.2,0,3.2c0,1-0.9,1.7-2,1.8c-1.4,0.1-2.9,0.1-4.3,0c-1.3-0.2-2.1-1-2.3-2.4c-0.1-0.9-0.3-1.8-0.4-2.6
			c-0.2-1.2-0.7-1.7-1.8-1.8c-0.9-0.1-1.8,0-2.8,0c0,1.4,0,2.7,0,3.9c0,0.3,0.3,1,0.8,1.1c0.6,0,1.2,0,1.9,0v1.8h-10.8v-1.8
			c0.3,0,0.6,0,0.9,0c1.9,0,1.9-0.5,1.9-2.3c0-2.6-0.1-5.3,0-7.9c0-1.2-0.5-2.3-1.4-2.4c-0.4,0-0.9,0-1.4,0v-1.7c0.2,0,0.4,0,0.5,0
			c4.6,0,9.1,0,13.7,0c1.1,0,2.3,0.2,3.2,0.7c1.4,0.7,2.1,2.1,2,3.7c0,1.6-0.8,2.5-2.2,3.1c-0.8,0.3-1.7,0.5-2.6,0.7
			c0.3,0.1,0.5,0.2,0.7,0.3c1.9,0.6,2.5,1.3,2.6,3.3c0,0.5,0,0.9,0.1,1.4c0,0.3,0.3,0.6,1,0.7c0.7,0,1-0.4,1-0.8
			C509,390,509,389.4,509,388.7"/>
		<path class="st2" d="M472.5,386.2h4.7c-0.8-1.6-1.5-3.2-2.4-4.8C474.1,383.1,473.3,384.6,472.5,386.2 M465.1,393.6v-1.7
			c2.1,0,2.6-1.4,3.2-2.8c1.7-3.6,3.4-7.6,5.1-11.1c0.3-0.5,0.5-0.8,1.2-0.8c3.7,0,3.7,0.4,5.3,3.8c1.3,2.8,2.7,5.5,4,8.3
			c0.6,1.4,1.4,2.6,3.2,2.6v1.7h-10.2v-1.7c0.4,0,0.9,0,1.4,0c1.4,0,1.3-0.7,0.9-2c-0.4-1-0.9-1.3-2-1.3c-1.4,0-2.8,0-4.2,0
			c-1.2,0-1.8,0.4-2.1,1.4c-0.1,0.3-0.3,1.4-0.5,1.9c1,0,2,0,2.8,0v1.7H465.1z"/>
		<path class="st2" d="M520,386.2h4.7c-0.8-1.6-1.5-3.2-2.4-4.8C521.5,383.1,520.8,384.6,520,386.2 M512.5,393.6v-1.7
			c2.1,0,2.6-1.4,3.2-2.8c1.7-3.6,3.4-7.6,5.1-11.1c0.3-0.5,0.5-0.8,1.2-0.8c3.7,0,3.7,0.4,5.3,3.8c1.3,2.8,2.7,5.5,4,8.3
			c0.6,1.4,1.4,2.6,3.2,2.6v1.7h-10.2v-1.7c0.4,0,0.9,0,1.4,0c1.4,0,1.3-0.7,0.9-2c-0.4-1-0.9-1.3-2-1.3c-1.4,0-2.8,0-4.2,0
			c-1.2,0-1.8,0.4-2.1,1.4c-0.1,0.3-0.3,1.4-0.5,1.9c1,0,2,0,2.8,0v1.7H512.5z"/>
		<path class="st2" d="M459.8,378.6c1.3-0.8,1.5-0.9,2.5-0.9v6.2c-0.4,0-0.7,0-1,0c-1,0.1-1-0.2-1.4-1.1c-1-2.4-3.6-3.3-6.7-2.8
			c-2.2,0.3-3.6,1.8-3.8,4.3c-0.1,1.6,0,3.3,0.5,4.7c1,2.8,5.1,3.1,6.9,1.9c0.8-0.5,1.1-1.8,0.8-2.7c-0.1-0.2-0.5-0.7-1-0.9
			c-0.5-0.2-1.2-0.5-1.8-0.5v-1.5h10.7v1.4c-2.5,0.4-2.5,1.1-2.5,3.8v2.9c-0.7,0.7-2.2-0.3-3.2-1.1c-3.7,2.7-10.3,2.3-13.7-0.7
			c-4.5-4-2.8-11.3,3-13.6C451.5,377.3,455.9,376.8,459.8,378.6"/>
		<path class="st2" d="M263.4,385v-4.5c0-0.4,0.1-0.6,0.1-0.6c0.1,0,0.3-0.1,1-0.1c0.9,0.1,1.7,0.3,2.3,0.7c0.5,0.3,0.8,1,0.8,2
			c-0.1,1-0.4,1.7-0.9,2c-0.7,0.3-1.6,0.5-2.7,0.5C263.8,385,263.7,385,263.4,385C263.5,385,263.4,385,263.4,385 M270.2,379.7
			c-0.8-0.6-1.8-1.1-2.8-1.3c-0.4-0.1-0.9-0.2-1.3-0.2c-0.4,0-0.8-0.1-1.2-0.1h-7.6v1.7h0.5c1.1,0,1.3,0.2,1.3,0.2
			c0,0,0.2,0.2,0.2,1v9.7c0,1-0.1,1.2-0.1,1.2c0,0-0.3,0.1-1.4,0.1l-0.5,0v1.7h8.4v-1.7H265c-0.5,0-0.9-0.1-1.2-0.1
			c-0.1,0-0.2-0.3-0.3-0.8v-4.5l3.4,0c1.7-0.1,2.9-0.5,3.7-1.2c0.8-0.7,1.2-1.7,1.2-2.9C271.7,381.4,271.2,380.4,270.2,379.7"/>
		<path class="st2" d="M288.7,377.6l-1.4,0l-0.2,0.2c-0.1,0.1-0.1,0.1-0.2,0.2c-0.1,0.1-0.3,0.1-0.4,0.1c-0.1,0-0.1,0-0.2,0
			c0,0-0.1,0-0.1,0l0,0l-9.6,0c-0.4,0-0.5,0-0.5,0c-0.1,0-0.1-0.1-0.2-0.1c-0.1-0.1-0.1-0.1-0.2-0.2l-0.2-0.2H274l-1,5.6l1.5,0.1
			l0.2-0.3c0-0.1,0.1-0.3,0.5-0.9c0.3-0.4,0.8-0.9,1.5-1.4c0.1-0.1,0.2-0.2,0.4-0.2c0.1-0.1,0.3-0.2,0.4-0.2
			c0.2-0.1,0.5-0.2,0.7-0.2c0.5-0.1,0.9-0.1,1.2,0c0,0,0,0,0,0.1l0,10.2c0,1.4-0.2,1.6-0.2,1.6c-0.1,0.1-0.4,0.2-1.6,0.2H277v1.7h0
			h0h8.6v-1.7h-0.5c-1.1,0-1.5-0.2-1.6-0.2c0,0-0.2-0.3-0.2-1.6c0,0,0-10.2,0-10.2c0.2-0.1,0.5-0.1,0.9-0.1c0.2,0,0.3,0.1,0.5,0.1
			c0.3,0.1,0.5,0.2,0.8,0.3c0.2,0.1,0.4,0.2,0.7,0.4c0.1,0,0.1,0.1,0.2,0.2l0.1,0.1c0.1,0.1,0.1,0.1,0.2,0.2c0.1,0,0.1,0.1,0.2,0.2
			c0.2,0.2,0.3,0.4,0.5,0.6c0.2,0.3,0.5,0.7,0.9,1.2l0.2,0.3l1.3-0.4L288.7,377.6z"/>
		<path class="st2" d="M588.8,377.6l-1.4,0l-0.2,0.2c-0.1,0.1-0.1,0.1-0.2,0.2c-0.1,0.1-0.3,0.1-0.4,0.1c-0.1,0-0.1,0-0.2,0
			c0,0-0.1,0-0.1,0l0,0l-9.6,0c-0.4,0-0.5,0-0.5,0c-0.1,0-0.1-0.1-0.1-0.1c-0.1-0.1-0.1-0.1-0.2-0.2l-0.2-0.2h-1.5l-1,5.6l1.5,0.1
			l0.1-0.3c0-0.1,0.1-0.3,0.5-0.9c0.3-0.4,0.8-0.9,1.5-1.4c0.1-0.1,0.2-0.2,0.4-0.2c0.1-0.1,0.3-0.2,0.4-0.2
			c0.2-0.1,0.5-0.2,0.7-0.2c0.5-0.1,0.9-0.1,1.2,0c0,0,0,0,0,0.1l0,10.2c0,1.4-0.2,1.6-0.2,1.6c-0.1,0.1-0.4,0.2-1.6,0.2h-0.5v1.7h0
			h8.6v-1.7h-0.5c-1.1,0-1.5-0.2-1.6-0.2c0,0-0.2-0.3-0.2-1.6c0,0,0-10.2,0-10.2c0.2-0.1,0.5-0.1,0.9-0.1c0.2,0,0.3,0.1,0.5,0.1
			c0.3,0.1,0.5,0.2,0.8,0.3c0.2,0.1,0.4,0.2,0.7,0.4c0.1,0,0.1,0.1,0.2,0.2l0.1,0.1c0.1,0.1,0.1,0.1,0.2,0.2c0.1,0,0.1,0.1,0.2,0.2
			c0.2,0.2,0.3,0.4,0.5,0.6c0.2,0.3,0.5,0.7,0.9,1.2l0.2,0.3l1.3-0.4L588.8,377.6z"/>
		<path class="st2" d="M595.3,386.5c0.1,0,0.1-0.1,0.2-0.1c0.2-0.1,0.5-0.1,0.8-0.1l0.2,0c0.4,0.1,0.8,0.3,1.2,0.7
			c0.4,0.4,0.6,1,0.7,1.7c0,0.2,0,0.4,0,0.6c0,0.2,0,0.4,0,0.5c0,1.4-0.2,1.9-0.4,2c-0.2,0.3-0.5,0.5-0.6,0.5c-0.1,0-0.2,0-0.2,0
			h-0.2c-0.5,0-0.9-0.2-1.3-0.5c-0.3-0.3-0.5-0.9-0.5-1.7V386.5z M600.6,384.7c-0.8-0.8-1.8-1.2-2.9-1.2l-0.2,0
			c-0.6,0-1.2,0.2-1.7,0.5c-0.2,0.1-0.3,0.2-0.4,0.2v-6.5l-0.9,0.4c-0.1,0-0.2,0.1-0.3,0.1l-0.2,0.1c-0.2,0.1-0.4,0.1-0.7,0.2
			c-0.2,0.1-0.5,0.1-0.7,0.2c-0.2,0-0.3,0-0.5,0.1c-0.1,0-0.2,0-0.4,0l-0.7-0.1v1.9l0.7,0c0.1,0,0.1,0,0.2,0.1c0,0.1,0,0.2,0,0.3v13
			h1.4l0.2-0.3c0.1-0.1,0.1-0.2,0.2-0.4l0-0.1c0.1-0.1,0.1-0.2,0.1-0.2c0.1,0,0.1,0,0.2,0c0.1,0,0.2,0.1,0.3,0.1s0.2,0.1,0.3,0.1
			l0.2,0.1c0.3,0.1,0.6,0.2,1,0.4c0.4,0.1,0.9,0.2,1.4,0.2c1.6,0,2.8-0.5,3.7-1.6c0.8-1,1.2-2.3,1.2-3.7l0-0.4
			C601.9,386.8,601.4,385.5,600.6,384.7"/>
		<path class="st2" d="M614.1,391.9c-0.1-0.1-0.3-0.2-0.4-0.3l-3.5-4l1.3-1.1c0.2-0.2,0.5-0.3,0.6-0.4c0.2-0.1,0.3-0.1,0.5-0.2
			c0.1,0,0.2-0.1,0.3-0.1c0.1,0,0.2,0,0.4-0.1l0.2,0c0.1,0,0.2,0,0.3-0.1l0.5-0.1v-1.7h-5.1v1.9h0.3l-2.4,1.9v-9.7l-1.6,0.4
			c-0.2,0.1-0.5,0.1-0.7,0.1c-0.2,0-0.4,0.1-0.5,0.1l-0.5,0.1c-0.1,0-0.2,0-0.2,0l-0.7,0v1.5l0.4,0.1c0.1,0,0.1,0,0.2,0l0.2,0.1
			c0.1,0,0.1,0,0.2,0c0,0.1,0,0.3,0,0.7v10.9c-0.1,0-0.2,0-0.3,0l-0.6,0v1.9h5.6v-1.8h-0.6c-0.4,0-0.6-0.1-0.6,0c0,0,0-0.1,0-0.2
			v-1.9l0.2-0.2l2,2.2l-0.5-0.1v2h6.2v-1.8h-0.6C614.2,391.9,614.1,391.9,614.1,391.9"/>
		<path class="st2" d="M620.6,391.8c0,1.1-0.9,1.9-1.9,1.9c-1.1,0-1.9-0.9-1.9-1.9c0-1.1,0.9-1.9,1.9-1.9
			C619.8,389.9,620.6,390.8,620.6,391.8"/>
		<path class="st2" d="M294,391.8c0,1.1-0.9,1.9-1.9,1.9c-1.1,0-1.9-0.9-1.9-1.9c0-1.1,0.9-1.9,1.9-1.9
			C293.1,389.9,294,390.7,294,391.8"/>
	</g>
</g>
</svg>
