<?xml version="1.0" encoding="UTF-8" standalone="no"?>
<svg width="34px" height="24px" viewBox="0 0 34 24" version="1.1" xmlns="http://www.w3.org/2000/svg" xmlns:xlink="http://www.w3.org/1999/xlink">
    <!-- Generator: Sketch 44.1 (41455) - http://www.bohemiancoding.com/sketch -->
    <title>mastercard</title>
    <desc>Created with Sketch.</desc>
    <defs></defs>
    <g id="masercard" stroke="none" stroke-width="1" fill="none" fill-rule="evenodd">
        <g id="mastercard" transform="translate(1.000000, 1.000000)">
            <path d="M4,0 L28,0 C30.209,0 32,1.791 32,4 L32,18 C32,20.209 30.209,22 28,22 L4,22 C1.791,22 0,20.209 0,18 L0,4 C0,1.791 1.791,0 4,0 Z" id="Stroke-3" stroke="#E6E6E6" stroke-width="2" fill="#FFFFFF"></path>
            <path d="M13.6379,11.2945 C13.6379,7.3755 16.8149,4.1995 20.7329,4.1995 C24.6519,4.1995 27.8279,7.3755 27.8279,11.2945 C27.8279,15.2125 24.6519,18.3895 20.7329,18.3895 C16.8149,18.3895 13.6379,15.2125 13.6379,11.2945" id="Fill-5" fill="#E67D32"></path>
            <path d="M15.9807,6.013 C15.9837,6.013 15.6087,6.337 15.3577,6.655 L16.6207,6.655 C16.6207,6.655 17.0527,7.122 17.2117,7.474 L14.7447,7.474 C14.7447,7.474 14.5057,7.849 14.3467,8.167 L17.6107,8.167 C17.6107,8.167 17.9087,8.725 17.9737,9.02 L14.0057,9.02 C14.0057,9.02 13.8687,9.407 13.8127,9.691 L18.1567,9.686 C18.2757,10.232 18.5647,11.817 17.9687,13.569 L14.0227,13.574 C14.0857,13.784 14.1927,14.069 14.2957,14.279 L17.6837,14.279 C17.5477,14.564 17.3477,14.921 17.2347,15.102 L14.7497,15.103 C14.8807,15.302 15.0917,15.615 15.2277,15.758 L16.7577,15.757 C16.4707,16.153 15.9837,16.564 15.9837,16.564 L15.9717,16.564 L15.9877,16.569 C14.7307,17.701 13.0667,18.39 11.2427,18.39 C7.3237,18.39 4.1477,15.212 4.1477,11.295 C4.1477,7.376 7.3237,4.199 11.2427,4.199 C13.0637,4.199 14.7247,4.885 15.9807,6.013" id="Fill-7" fill="#D9262E"></path>
            <path d="M25.6518,13.0559 C25.6018,13.1019 25.5458,13.1469 25.4838,13.1849 C25.4278,13.2149 25.3718,13.2459 25.3218,13.2609 C25.2648,13.2759 25.1968,13.2839 25.1248,13.2839 C24.9158,13.2839 24.7538,13.1919 24.6308,13.0169 C24.5138,12.8349 24.4518,12.5769 24.4518,12.2489 C24.4518,11.9749 24.4798,11.7159 24.5468,11.4809 C24.6078,11.2449 24.6988,11.0319 24.8108,10.8499 C24.9228,10.6669 25.0528,10.5299 25.2028,10.4229 C25.3488,10.3239 25.4948,10.2709 25.6518,10.2629 L25.6738,10.2629 C25.7918,10.2629 25.8928,10.2779 25.9768,10.3089 C26.0618,10.3389 26.1518,10.3929 26.2408,10.4609 L26.3918,9.4629 L27.0698,9.4629 L26.4478,13.2069 L25.7698,13.2069 L25.8208,12.9109 C25.7578,12.9649 25.7028,13.0099 25.6518,13.0559 L25.6518,13.0559 Z M25.6518,10.9559 C25.6178,10.9709 25.5848,10.9939 25.5558,11.0169 C25.4668,11.0769 25.3938,11.1689 25.3318,11.2749 C25.2818,11.3809 25.2368,11.5039 25.2088,11.6639 C25.1748,11.8149 25.1578,11.9679 25.1578,12.1129 C25.1578,12.2879 25.1918,12.4089 25.2488,12.4849 C25.3098,12.5679 25.3988,12.6069 25.5178,12.6069 C25.5628,12.6069 25.6068,12.5989 25.6518,12.5769 C25.6738,12.5679 25.6918,12.5609 25.7128,12.5459 C25.7818,12.5079 25.8438,12.4689 25.9038,12.4169 L26.1448,11.0089 C26.1068,10.9859 26.0618,10.9639 25.9998,10.9479 C25.9428,10.9249 25.8928,10.9169 25.8488,10.9169 C25.7748,10.9169 25.7128,10.9319 25.6518,10.9559 L25.6518,10.9559 Z M24.3188,11.1469 C24.1708,11.0329 23.8408,11.0559 23.7718,11.2909 L23.4468,13.2069 L22.7688,13.2069 L23.2558,10.3469 L23.9348,10.3469 L23.9198,10.5779 C24.0498,10.4479 24.1938,10.3389 24.5578,10.3499 C24.5798,10.3509 24.3368,10.7749 24.3188,11.1469 L24.3188,11.1469 Z M21.4568,11.9219 C21.3838,11.9379 21.3218,11.9599 21.2648,11.9829 C21.1928,12.0209 21.1318,12.0739 21.0908,12.1429 C21.0528,12.2119 21.0298,12.3029 21.0298,12.4169 C21.0298,12.5159 21.0578,12.5839 21.1148,12.6219 C21.1638,12.6609 21.2428,12.6829 21.3438,12.6829 C21.3778,12.6829 21.4178,12.6759 21.4568,12.6609 C21.4898,12.6529 21.5238,12.6369 21.5568,12.6219 C21.6348,12.5769 21.7038,12.5229 21.7698,12.4619 L21.8768,11.8539 C21.7538,11.8689 21.6418,11.8839 21.5338,11.9079 C21.5068,11.9079 21.4788,11.9149 21.4568,11.9219 L21.4568,11.9219 Z M21.4568,13.1089 C21.4278,13.1319 21.3998,13.1469 21.3728,13.1619 C21.3048,13.1999 21.2378,13.2309 21.1758,13.2539 C21.1148,13.2689 21.0298,13.2839 20.9228,13.2839 C20.7438,13.2839 20.6028,13.2149 20.4918,13.0859 C20.3798,12.9499 20.3278,12.7739 20.3278,12.5609 C20.3278,12.3329 20.3688,12.1429 20.4468,11.9829 C20.5248,11.8299 20.6438,11.7009 20.7948,11.6099 C20.9408,11.5189 21.1148,11.4579 21.3158,11.4199 C21.3608,11.4119 21.4058,11.4049 21.4568,11.3969 C21.6128,11.3659 21.7878,11.3439 21.9668,11.3359 C21.9728,11.3209 21.9728,11.3049 21.9788,11.2829 C21.9788,11.2599 21.9838,11.2369 21.9838,11.2069 C21.9838,11.0849 21.9388,11.0009 21.8608,10.9479 C21.7758,10.9019 21.6528,10.8799 21.4898,10.8799 L21.4568,10.8799 C21.3488,10.8869 21.2378,10.9099 21.1198,10.9559 C20.9848,11.0089 20.8848,11.0469 20.8168,11.0849 L20.7548,11.0849 L20.8508,10.4079 C20.9288,10.3769 21.0528,10.3469 21.2208,10.3169 C21.2988,10.2939 21.3778,10.2859 21.4568,10.2779 C21.5408,10.2629 21.6248,10.2629 21.7148,10.2629 C22.0448,10.2629 22.2868,10.3239 22.4438,10.4379 C22.5948,10.5529 22.6738,10.7349 22.6738,10.9859 C22.6738,11.0169 22.6738,11.0619 22.6678,11.1159 C22.6618,11.1689 22.6568,11.2149 22.6518,11.2599 L22.3198,13.2069 L21.6468,13.2069 L21.6978,12.9029 C21.6528,12.9409 21.6018,12.9869 21.5408,13.0409 L21.4568,13.1089 Z M15.0998,12.6369 L15.2008,12.6369 C15.3458,12.6369 15.4858,12.6069 15.6208,12.5379 C15.7498,12.4689 15.8678,12.3929 15.9628,12.3099 L16.0418,12.3099 L15.9128,13.0479 C15.7838,13.1239 15.6428,13.1849 15.4978,13.2229 C15.3738,13.2609 15.2388,13.2759 15.0998,13.2839 L15.0378,13.2839 C14.6728,13.2839 14.3978,13.1769 14.2018,12.9569 C14.0048,12.7439 13.9098,12.4469 13.9098,12.0669 C13.9098,11.8079 13.9428,11.5649 14.0048,11.3509 C14.0668,11.1309 14.1628,10.9409 14.2808,10.7729 C14.3978,10.6129 14.5378,10.4919 14.7128,10.3929 C14.8348,10.3319 14.9648,10.2859 15.0998,10.2629 C15.1608,10.2559 15.2218,10.2559 15.2848,10.2559 C15.5988,10.2559 15.8338,10.3389 15.9968,10.5149 C16.1538,10.6819 16.2328,10.9409 16.2328,11.2749 C16.2328,11.3899 16.2258,11.5039 16.2098,11.6179 C16.1928,11.7239 16.1708,11.8389 16.1418,11.9449 L14.5718,11.9449 L14.5718,12.0059 C14.5718,12.2039 14.6278,12.3559 14.7288,12.4689 C14.8128,12.5609 14.9368,12.6219 15.0998,12.6369 L15.0998,12.6369 Z M15.0998,10.8419 C15.0088,10.8569 14.9258,10.9019 14.8578,10.9789 C14.7618,11.0849 14.6898,11.2219 14.6388,11.4049 L15.5538,11.4049 C15.5538,11.3739 15.5588,11.3509 15.5588,11.3209 C15.5588,11.2979 15.5648,11.2679 15.5648,11.2449 C15.5648,11.1079 15.5318,11.0089 15.4698,10.9319 C15.4078,10.8649 15.3238,10.8269 15.2058,10.8269 C15.1718,10.8269 15.1328,10.8339 15.0998,10.8419 L15.0998,10.8419 Z M9.2328,11.9219 C9.1598,11.9379 9.0978,11.9599 9.0478,11.9829 C8.9688,12.0209 8.9128,12.0739 8.8738,12.1429 C8.8288,12.2119 8.8108,12.3029 8.8108,12.4169 C8.8108,12.5159 8.8388,12.5839 8.8908,12.6219 C8.9468,12.6609 9.0188,12.6829 9.1258,12.6829 C9.1598,12.6829 9.1928,12.6759 9.2328,12.6609 C9.2658,12.6529 9.2998,12.6369 9.3388,12.6219 C9.4118,12.5769 9.4848,12.5229 9.5518,12.4619 L9.6528,11.8539 C9.5348,11.8689 9.4178,11.8839 9.3168,11.9079 C9.2888,11.9079 9.2608,11.9149 9.2328,11.9219 L9.2328,11.9219 Z M9.2328,13.1089 C9.2048,13.1319 9.1768,13.1469 9.1548,13.1619 C9.0808,13.1999 9.0188,13.2309 8.9578,13.2539 C8.8958,13.2689 8.8108,13.2839 8.6998,13.2839 C8.5258,13.2839 8.3798,13.2149 8.2728,13.0859 C8.1608,12.9499 8.1048,12.7739 8.1048,12.5609 C8.1048,12.3329 8.1448,12.1429 8.2228,11.9829 C8.3008,11.8299 8.4188,11.7009 8.5758,11.6099 C8.7218,11.5189 8.8958,11.4579 9.0918,11.4199 L9.2328,11.3969 C9.3958,11.3659 9.5638,11.3439 9.7488,11.3359 C9.7488,11.3209 9.7488,11.3049 9.7538,11.2829 C9.7598,11.2599 9.7598,11.2369 9.7598,11.2069 C9.7598,11.0849 9.7208,11.0009 9.6358,10.9479 C9.5518,10.9019 9.4288,10.8799 9.2658,10.8799 L9.2328,10.8799 C9.1318,10.8869 9.0188,10.9099 8.8958,10.9559 C8.7618,11.0089 8.6608,11.0469 8.5928,11.0849 L8.5318,11.0849 L8.6318,10.4079 C8.7108,10.3769 8.8338,10.3469 8.9968,10.3169 C9.0758,10.2939 9.1548,10.2859 9.2328,10.2779 C9.3168,10.2629 9.4058,10.2629 9.4908,10.2629 C9.8218,10.2629 10.0628,10.3239 10.2198,10.4379 C10.3768,10.5529 10.4498,10.7349 10.4498,10.9859 C10.4498,11.0169 10.4498,11.0619 10.4438,11.1159 C10.4388,11.1689 10.4328,11.2149 10.4278,11.2599 L10.0968,13.2069 L9.4228,13.2069 L9.4738,12.9029 C9.4348,12.9409 9.3788,12.9869 9.3218,13.0409 C9.2888,13.0629 9.2608,13.0859 9.2328,13.1089 L9.2328,13.1089 Z M19.2788,13.2839 C18.9038,13.2839 18.6068,13.1549 18.4048,12.9029 C18.1958,12.6529 18.0958,12.2879 18.0958,11.8149 C18.0958,11.4429 18.1408,11.1079 18.2298,10.8029 C18.3198,10.4999 18.4488,10.2409 18.6068,10.0199 C18.7628,9.8069 18.9488,9.6389 19.1668,9.5179 C19.3798,9.3959 19.6108,9.3349 19.8518,9.3349 C20.0428,9.3349 20.2218,9.3649 20.3898,9.4189 C20.4718,9.4469 20.6278,9.5219 20.6278,9.5219 L20.4698,10.4229 C20.3918,10.3229 20.3128,10.2449 20.2328,10.1869 C20.1148,10.1109 19.9738,10.0659 19.8178,10.0659 C19.5368,10.0659 19.3078,10.2179 19.1268,10.5219 C18.9418,10.8269 18.8528,11.2149 18.8528,11.6859 C18.8528,11.9909 18.9038,12.2119 19.0038,12.3479 C19.1048,12.4769 19.2518,12.5459 19.4418,12.5459 C19.6158,12.5459 19.7788,12.5009 19.9298,12.4089 C20.0018,12.3619 20.0728,12.3119 20.1408,12.2559 L19.9828,13.1169 C19.9828,13.1169 19.9008,13.1569 19.8628,13.1699 C19.7668,13.2069 19.6828,13.2309 19.6108,13.2539 C19.5308,13.2689 19.4198,13.2839 19.2788,13.2839 L19.2788,13.2839 Z M17.9968,11.1469 C17.8498,11.0329 17.5188,11.0559 17.4498,11.2909 L17.1248,13.2069 L16.4458,13.2069 L16.9338,10.3469 L17.6128,10.3469 L17.5988,10.5779 C17.7278,10.4479 17.8718,10.3389 18.2358,10.3499 C18.2578,10.3509 18.0158,10.7749 17.9968,11.1469 L17.9968,11.1469 Z M13.1278,13.2609 C12.8918,13.2609 12.7238,13.2069 12.6228,13.1089 C12.5228,13.0029 12.4718,12.8419 12.4718,12.6369 C12.4718,12.5839 12.4768,12.5309 12.4828,12.4849 C12.4878,12.4319 12.4998,12.3709 12.5048,12.3029 L12.9398,9.8729 L13.6188,9.8729 L13.5198,10.3469 L14.1538,10.3469 L14.0478,10.9479 L13.4138,10.9479 L13.2398,11.9829 C13.2288,12.0509 13.2168,12.1199 13.2058,12.1959 C13.1948,12.2639 13.1898,12.3329 13.1898,12.3789 C13.1898,12.4849 13.2058,12.5539 13.2508,12.5919 C13.2908,12.6299 13.3578,12.6529 13.4478,12.6529 C13.4808,12.6529 13.5258,12.6449 13.5818,12.6299 C13.6388,12.6069 13.6888,12.5919 13.7218,12.5679 L13.7788,12.5679 L13.6708,13.1769 C13.5928,13.2069 13.5148,13.2229 13.4308,13.2379 C13.3468,13.2539 13.2458,13.2609 13.1278,13.2609 L13.1278,13.2609 Z M7.5628,13.2069 L6.8388,13.2069 L7.2598,10.7199 L6.3648,13.1929 L5.8658,13.1929 L5.7448,10.6209 L5.3068,13.2069 L4.6228,13.2069 L5.2678,9.4109 L6.0978,9.4109 L6.3888,11.5969 L7.3548,9.4109 L8.2068,9.4109 L7.5628,13.2069 L7.5628,13.2069 Z M12.4808,10.2869 L12.3668,10.9249 L11.7438,10.9089 C11.7438,10.9089 11.4328,10.9909 11.4328,11.1219 C11.4328,11.2529 11.6618,11.4169 12.0058,11.5649 C12.3508,11.7119 12.3668,12.1199 12.3338,12.3989 C12.3008,12.6769 12.2518,13.2549 11.2528,13.2829 C10.6798,13.2999 10.3688,13.1849 10.3688,13.1849 L10.4998,12.5299 C10.4998,12.5299 11.2368,12.7269 11.4008,12.6119 C11.5638,12.4969 11.7608,12.3009 11.4498,12.1699 C11.1388,12.0389 10.6308,11.8259 10.6308,11.3019 C10.6308,10.7779 10.8438,10.4829 11.1718,10.3359 C11.4988,10.1889 12.0718,10.2049 12.4808,10.2869 L12.4808,10.2869 Z" id="Fill-9" fill="#2F3064"></path>
            <path d="M25.7883,12.9538 C25.7373,12.9998 25.6813,13.0448 25.6203,13.0828 C25.5643,13.1128 25.5083,13.1438 25.4583,13.1588 C25.4003,13.1738 25.3333,13.1818 25.2613,13.1818 C25.0533,13.1818 24.8903,13.0898 24.7673,12.9158 C24.6493,12.7328 24.5883,12.4738 24.5883,12.1468 C24.5883,11.8728 24.6153,11.6138 24.6833,11.3788 C24.7443,11.1428 24.8343,10.9298 24.9473,10.7478 C25.0593,10.5638 25.1883,10.4268 25.3393,10.3208 C25.4853,10.2218 25.6313,10.1688 25.7883,10.1608 L25.8103,10.1608 C25.9283,10.1608 26.0293,10.1758 26.1143,10.2068 C26.1983,10.2368 26.2883,10.2908 26.3773,10.3588 L26.5283,9.3618 L27.2063,9.3618 L26.5853,13.1058 L25.9063,13.1058 L25.9563,12.8088 C25.8953,12.8618 25.8383,12.9078 25.7883,12.9538 L25.7883,12.9538 Z M25.7883,10.8538 C25.7543,10.8688 25.7213,10.8918 25.6933,10.9148 C25.6023,10.9748 25.5303,11.0668 25.4693,11.1738 C25.4183,11.2788 25.3733,11.4018 25.3453,11.5608 C25.3113,11.7128 25.2943,11.8658 25.2943,12.0098 C25.2943,12.1858 25.3283,12.3068 25.3833,12.3828 C25.4463,12.4658 25.5353,12.5048 25.6543,12.5048 C25.6993,12.5048 25.7443,12.4968 25.7883,12.4738 C25.8103,12.4658 25.8283,12.4588 25.8503,12.4438 C25.9173,12.4058 25.9783,12.3668 26.0403,12.3138 L26.2813,10.9068 C26.2423,10.8838 26.1983,10.8608 26.1363,10.8458 C26.0793,10.8228 26.0293,10.8158 25.9843,10.8158 C25.9113,10.8158 25.8503,10.8298 25.7883,10.8538 L25.7883,10.8538 Z M24.4553,11.0448 C24.3073,10.9298 23.9773,10.9538 23.9083,11.1878 L23.5833,13.1058 L22.9053,13.1058 L23.3933,10.2448 L24.0713,10.2448 L24.0573,10.4758 C24.1853,10.3468 24.3293,10.2368 24.6943,10.2488 C24.7163,10.2488 24.4733,10.6728 24.4553,11.0448 L24.4553,11.0448 Z M21.5923,11.8198 C21.5203,11.8358 21.4583,11.8578 21.4023,11.8808 C21.3303,11.9188 21.2673,11.9718 21.2293,12.0408 C21.1883,12.1098 21.1663,12.2008 21.1663,12.3138 C21.1663,12.4138 21.1943,12.4818 21.2513,12.5198 C21.3013,12.5578 21.3803,12.5808 21.4813,12.5808 C21.5143,12.5808 21.5543,12.5728 21.5923,12.5578 C21.6263,12.5508 21.6603,12.5348 21.6933,12.5198 C21.7713,12.4738 21.8393,12.4208 21.9073,12.3598 L22.0133,11.7518 C21.8903,11.7668 21.7773,11.7818 21.6703,11.8048 C21.6433,11.8048 21.6153,11.8118 21.5923,11.8198 L21.5923,11.8198 Z M21.5923,13.0068 C21.5643,13.0298 21.5363,13.0448 21.5083,13.0598 C21.4413,13.0978 21.3743,13.1288 21.3133,13.1508 C21.2513,13.1658 21.1663,13.1818 21.0603,13.1818 C20.8803,13.1818 20.7403,13.1128 20.6283,12.9838 C20.5153,12.8458 20.4653,12.6718 20.4653,12.4588 C20.4653,12.2308 20.5043,12.0408 20.5833,11.8808 C20.6613,11.7278 20.7793,11.5988 20.9313,11.5078 C21.0773,11.4168 21.2513,11.3558 21.4523,11.3178 C21.4973,11.3088 21.5423,11.3028 21.5923,11.2948 C21.7503,11.2638 21.9243,11.2418 22.1043,11.2338 C22.1093,11.2188 22.1093,11.2028 22.1143,11.1808 C22.1143,11.1578 22.1203,11.1348 22.1203,11.1048 C22.1203,10.9828 22.0763,10.8988 21.9963,10.8458 C21.9123,10.7998 21.7893,10.7778 21.6263,10.7778 L21.5923,10.7778 C21.4863,10.7848 21.3743,10.8078 21.2563,10.8538 C21.1213,10.9068 21.0203,10.9448 20.9533,10.9828 L20.8923,10.9828 L20.9873,10.3058 C21.0663,10.2758 21.1883,10.2448 21.3573,10.2148 C21.4363,10.1908 21.5143,10.1838 21.5923,10.1758 C21.6773,10.1608 21.7603,10.1608 21.8503,10.1608 C22.1823,10.1608 22.4223,10.2218 22.5803,10.3358 C22.7313,10.4498 22.8103,10.6328 22.8103,10.8838 C22.8103,10.9148 22.8103,10.9598 22.8053,11.0138 C22.7983,11.0668 22.7933,11.1128 22.7873,11.1578 L22.4563,13.1058 L21.7833,13.1058 L21.8353,12.8008 C21.7893,12.8388 21.7393,12.8848 21.6773,12.9388 L21.5923,13.0068 Z M15.2353,12.5348 L15.3363,12.5348 C15.4823,12.5348 15.6223,12.5048 15.7573,12.4358 C15.8863,12.3668 16.0043,12.2918 16.0993,12.2078 L16.1773,12.2078 L16.0493,12.9458 C15.9203,13.0228 15.7793,13.0828 15.6343,13.1208 C15.5103,13.1588 15.3753,13.1738 15.2353,13.1818 L15.1743,13.1818 C14.8093,13.1818 14.5343,13.0758 14.3383,12.8548 C14.1413,12.6418 14.0463,12.3448 14.0463,11.9648 C14.0463,11.7058 14.0803,11.4628 14.1413,11.2488 C14.2033,11.0288 14.2993,10.8378 14.4163,10.6708 C14.5343,10.5108 14.6743,10.3898 14.8483,10.2908 C14.9723,10.2298 15.1013,10.1838 15.2353,10.1608 C15.2963,10.1538 15.3583,10.1538 15.4203,10.1538 C15.7353,10.1538 15.9703,10.2368 16.1333,10.4118 C16.2903,10.5798 16.3693,10.8378 16.3693,11.1738 C16.3693,11.2878 16.3633,11.4018 16.3463,11.5158 C16.3293,11.6218 16.3073,11.7368 16.2793,11.8428 L14.7083,11.8428 L14.7083,11.9028 C14.7083,12.1008 14.7643,12.2538 14.8653,12.3668 C14.9503,12.4588 15.0733,12.5198 15.2353,12.5348 L15.2353,12.5348 Z M15.2353,10.7398 C15.1453,10.7548 15.0613,10.7998 14.9943,10.8758 C14.8993,10.9828 14.8263,11.1198 14.7753,11.3028 L15.6903,11.3028 C15.6903,11.2718 15.6953,11.2488 15.6953,11.2188 C15.6953,11.1958 15.7013,11.1658 15.7013,11.1428 C15.7013,11.0048 15.6673,10.9068 15.6063,10.8298 C15.5443,10.7628 15.4603,10.7248 15.3423,10.7248 C15.3083,10.7248 15.2693,10.7318 15.2353,10.7398 L15.2353,10.7398 Z M9.3683,11.8198 C9.2953,11.8358 9.2343,11.8578 9.1833,11.8808 C9.1053,11.9188 9.0493,11.9718 9.0103,12.0408 C8.9653,12.1098 8.9483,12.2008 8.9483,12.3138 C8.9483,12.4138 8.9763,12.4818 9.0263,12.5198 C9.0823,12.5578 9.1553,12.5808 9.2623,12.5808 C9.2953,12.5808 9.3293,12.5728 9.3683,12.5578 C9.4023,12.5508 9.4363,12.5348 9.4753,12.5198 C9.5483,12.4738 9.6213,12.4208 9.6883,12.3598 L9.7893,11.7518 C9.6713,11.7668 9.5543,11.7818 9.4533,11.8048 C9.4243,11.8048 9.3963,11.8118 9.3683,11.8198 L9.3683,11.8198 Z M9.3683,13.0068 C9.3413,13.0298 9.3123,13.0448 9.2903,13.0598 C9.2173,13.0978 9.1553,13.1288 9.0933,13.1508 C9.0323,13.1658 8.9483,13.1818 8.8363,13.1818 C8.6623,13.1818 8.5163,13.1128 8.4103,12.9838 C8.2983,12.8458 8.2413,12.6718 8.2413,12.4588 C8.2413,12.2308 8.2803,12.0408 8.3593,11.8808 C8.4383,11.7278 8.5553,11.5988 8.7133,11.5078 C8.8583,11.4168 9.0323,11.3558 9.2293,11.3178 L9.3683,11.2948 C9.5313,11.2638 9.7003,11.2418 9.8853,11.2338 C9.8853,11.2188 9.8853,11.2028 9.8913,11.1808 C9.8963,11.1578 9.8963,11.1348 9.8963,11.1048 C9.8963,10.9828 9.8563,10.8988 9.7723,10.8458 C9.6883,10.7998 9.5653,10.7778 9.4023,10.7778 L9.3683,10.7778 C9.2673,10.7848 9.1553,10.8078 9.0323,10.8538 C8.8983,10.9068 8.7963,10.9448 8.7293,10.9828 L8.6683,10.9828 L8.7683,10.3058 C8.8473,10.2758 8.9703,10.2448 9.1333,10.2148 C9.2113,10.1908 9.2903,10.1838 9.3683,10.1758 C9.4533,10.1608 9.5423,10.1608 9.6273,10.1608 C9.9583,10.1608 10.1993,10.2218 10.3563,10.3358 C10.5133,10.4498 10.5863,10.6328 10.5863,10.8838 C10.5863,10.9148 10.5863,10.9598 10.5813,11.0138 C10.5743,11.0668 10.5693,11.1128 10.5633,11.1578 L10.2333,13.1058 L9.5593,13.1058 L9.6103,12.8008 C9.5703,12.8388 9.5153,12.8848 9.4583,12.9388 C9.4243,12.9608 9.3963,12.9838 9.3683,13.0068 L9.3683,13.0068 Z M19.4153,13.1818 C19.0393,13.1818 18.7423,13.0528 18.5413,12.8008 C18.3333,12.5508 18.2323,12.1858 18.2323,11.7128 C18.2323,11.3398 18.2773,11.0048 18.3663,10.7008 C18.4563,10.3968 18.5853,10.1388 18.7423,9.9168 C18.8993,9.7048 19.0853,9.5368 19.3043,9.4158 C19.5153,9.2928 19.7463,9.2328 19.9873,9.2328 C20.1783,9.2328 20.3583,9.2638 20.5263,9.3168 C20.6073,9.3448 20.7643,9.4188 20.7643,9.4188 L20.6063,10.3208 C20.5283,10.2208 20.4493,10.1418 20.3693,10.0848 C20.2513,10.0098 20.1103,9.9628 19.9543,9.9628 C19.6733,9.9628 19.4433,10.1158 19.2633,10.4198 C19.0793,10.7248 18.9893,11.1128 18.9893,11.5838 C18.9893,11.8878 19.0393,12.1098 19.1403,12.2458 C19.2413,12.3748 19.3873,12.4438 19.5783,12.4438 C19.7523,12.4438 19.9143,12.3968 20.0663,12.3068 C20.1383,12.2598 20.2083,12.2098 20.2773,12.1538 L20.1193,13.0138 C20.1193,13.0138 20.0373,13.0538 19.9983,13.0678 C19.9033,13.1058 19.8193,13.1288 19.7463,13.1508 C19.6683,13.1658 19.5563,13.1818 19.4153,13.1818 L19.4153,13.1818 Z M18.1333,11.0448 C17.9853,10.9298 17.6553,10.9538 17.5863,11.1878 L17.2613,13.1058 L16.5833,13.1058 L17.0713,10.2448 L17.7493,10.2448 L17.7353,10.4758 C17.8643,10.3468 18.0083,10.2368 18.3713,10.2488 C18.3943,10.2488 18.1513,10.6728 18.1333,11.0448 L18.1333,11.0448 Z M13.2643,13.1588 C13.0293,13.1588 12.8603,13.1058 12.7593,13.0068 C12.6573,12.8998 12.6073,12.7398 12.6073,12.5348 C12.6073,12.4818 12.6133,12.4288 12.6183,12.3828 C12.6253,12.3298 12.6353,12.2688 12.6423,12.2008 L13.0763,9.7708 L13.7553,9.7708 L13.6563,10.2448 L14.2903,10.2448 L14.1843,10.8458 L13.5503,10.8458 L13.3763,11.8808 C13.3653,11.9488 13.3543,12.0178 13.3423,12.0928 C13.3313,12.1618 13.3263,12.2308 13.3263,12.2758 C13.3263,12.3828 13.3423,12.4518 13.3873,12.4898 C13.4273,12.5268 13.4943,12.5508 13.5833,12.5508 C13.6173,12.5508 13.6623,12.5418 13.7183,12.5268 C13.7753,12.5048 13.8253,12.4898 13.8583,12.4658 L13.9153,12.4658 L13.8083,13.0758 C13.7293,13.1058 13.6513,13.1208 13.5673,13.1358 C13.4823,13.1508 13.3823,13.1588 13.2643,13.1588 L13.2643,13.1588 Z M7.6983,13.1058 L6.9753,13.1058 L7.3953,10.6178 L6.5013,13.0908 L6.0013,13.0908 L5.8813,10.5188 L5.4433,13.1058 L4.7583,13.1058 L5.4043,9.3088 L6.2343,9.3088 L6.5253,11.4948 L7.4913,9.3088 L8.3433,9.3088 L7.6983,13.1058 L7.6983,13.1058 Z M12.6183,10.1848 L12.5033,10.8228 L11.8803,10.8068 C11.8803,10.8068 11.5703,10.8888 11.5703,11.0198 C11.5703,11.1508 11.7993,11.3148 12.1423,11.4618 C12.4873,11.6098 12.5033,12.0178 12.4703,12.2968 C12.4373,12.5748 12.3883,13.1528 11.3893,13.1808 C10.8163,13.1978 10.5053,13.0828 10.5053,13.0828 L10.6363,12.4278 C10.6363,12.4278 11.3733,12.6248 11.5373,12.5098 C11.7003,12.3948 11.8973,12.1988 11.5853,12.0678 C11.2753,11.9368 10.7673,11.7228 10.7673,11.1998 C10.7673,10.6768 10.9803,10.3818 11.3073,10.2338 C11.6353,10.0868 12.2083,10.1028 12.6183,10.1848 L12.6183,10.1848 Z" id="Fill-11" fill="#FFFFFF"></path>
        </g>
    </g>
</svg>