<?xml version="1.0" encoding="UTF-8" standalone="no"?>
<svg width="34px" height="24px" viewBox="0 0 34 24" version="1.1" xmlns="http://www.w3.org/2000/svg" xmlns:xlink="http://www.w3.org/1999/xlink">
    <!-- Generator: Sketch 44.1 (41455) - http://www.bohemiancoding.com/sketch -->
    <title>visa</title>
    <desc>Created with Sketch.</desc>
    <defs>
        <rect id="path-1" x="0" y="0" width="34" height="24" rx="4"></rect>
    </defs>
    <g id="visa" stroke="none" stroke-width="1" fill="none" fill-rule="evenodd">
        <g>
            <g id="Rectangle-226">
                <use fill="#FFFFFF" fill-rule="evenodd" xlink:href="#path-1"></use>
                <rect stroke="#E6E6E6" stroke-width="2" x="1" y="1" width="32" height="22" rx="4"></rect>
            </g>
            <polyline id="Fill-2" fill="#004F8B" points="14.0515122 8.64682457 12.8548455 16.2157851 14.7470857 16.2157851 15.9712015 8.64682457 14.0515122 8.64682457"></polyline>
            <path d="M21.5363732,10.4555492 L21.8143689,8.87050604 C21.8143689,8.87050604 20.9797976,8.53644389 19.9781952,8.53644389 C18.9760087,8.53644389 16.8063569,9.17595097 16.8063569,11.0395739 C16.8063569,12.9043649 19.5051352,12.9878804 19.5051352,14.0163479 C19.5051352,15.0465676 17.0843526,14.9356029 16.360746,14.2680626 L16.054717,15.9097561 C16.054717,15.9097561 17.139835,16.3273338 18.1134042,16.3273338 C19.0875575,16.3273338 21.508924,16.1048204 21.508924,13.6840379 C21.508924,11.5687003 18.8095617,11.986278 18.8095617,10.7060958 C18.8095617,10.7060958 19.0875575,9.42649758 21.5363732,10.4555492" id="Fill-3" fill="#004F8B"></path>
            <path d="M21.3967913,16.2157851 C21.3967913,16.2157851 23.9431391,10.238876 24.2077023,9.53804631 C24.4856981,8.80042307 25.09834,8.73092413 25.09834,8.73092413 L26.7674827,8.73092413 L28.427281,16.2058567 L26.6185564,16.2058567 L26.4053873,15.1306671 L23.845607,15.1306671 L23.4835116,16.2157851 L21.3967913,16.2157851 Z M26.0999424,13.5724891 L25.4598513,10.7896113 L24.4015985,13.5724891 L26.0999424,13.5724891 Z" id="Combined-Shape" fill="#004F8B"></path>
            <path d="M11.2616261,8.67485775 L9.29813494,13.7950026 L8.49101276,9.78800889 C8.49101276,9.78800889 8.41041735,8.67660983 7.61906384,8.67660983 L4.38648695,8.67660983 L4.38648695,8.83137638 C4.38648695,8.83137638 5.35830411,8.99490331 6.48138366,9.7056614 L6.44809425,9.70449335 L8.17330331,16.2157851 L10.1765081,16.2157851 L13.2928641,8.67485775 L11.2616261,8.67485775" id="Fill-6" fill="#004F8B"></path>
        </g>
    </g>
</svg>